%TF.GenerationSoftware,KiCad,Pcbnew,(5.0.2)-1*%
%TF.CreationDate,2019-02-28T15:11:48+01:00*%
%TF.ProjectId,STM32nano,53544d33-326e-4616-9e6f-2e6b69636164,rev?*%
%TF.SameCoordinates,Original*%
%TF.FileFunction,Copper,L2,Bot*%
%TF.FilePolarity,Positive*%
%FSLAX46Y46*%
G04 Gerber Fmt 4.6, Leading zero omitted, Abs format (unit mm)*
G04 Created by KiCad (PCBNEW (5.0.2)-1) date 28/02/2019 15:11:48*
%MOMM*%
%LPD*%
G01*
G04 APERTURE LIST*
%ADD10O,1.700000X1.700000*%
%ADD11R,1.700000X1.700000*%
%ADD12C,0.900000*%
%ADD13C,0.700000*%
%ADD14C,0.800000*%
%ADD15C,0.600000*%
%ADD16C,0.400000*%
%ADD17C,0.300000*%
G04 APERTURE END LIST*
D10*
X124460000Y-114300000D03*
X124460000Y-111760000D03*
X124460000Y-109220000D03*
X124460000Y-106680000D03*
X124460000Y-104140000D03*
X124460000Y-101600000D03*
X124460000Y-99060000D03*
X124460000Y-96520000D03*
X124460000Y-93980000D03*
X124460000Y-91440000D03*
X124460000Y-88900000D03*
D11*
X124460000Y-86360000D03*
X144780000Y-86360000D03*
D10*
X144780000Y-88900000D03*
X144780000Y-91440000D03*
X144780000Y-93980000D03*
X144780000Y-96520000D03*
X144780000Y-99060000D03*
X144780000Y-101600000D03*
X144780000Y-104140000D03*
X144780000Y-106680000D03*
X144780000Y-109220000D03*
X144780000Y-111760000D03*
X144780000Y-114300000D03*
X134620000Y-88900000D03*
X137160000Y-88900000D03*
X139700000Y-88900000D03*
D11*
X142240000Y-88900000D03*
X142240000Y-86360000D03*
D10*
X139700000Y-86360000D03*
X137160000Y-86360000D03*
X134620000Y-86360000D03*
D11*
X129540000Y-88900000D03*
D10*
X129540000Y-86360000D03*
D12*
X141097000Y-94170500D03*
X142303500Y-94170500D03*
X131960387Y-102162855D03*
X135128000Y-101981000D03*
D13*
X131572000Y-92710000D03*
X132715000Y-94551500D03*
X128905000Y-94551500D03*
X128079500Y-93916500D03*
X127063500Y-106045000D03*
X126873000Y-107950000D03*
X134556500Y-106045000D03*
X138366500Y-108585000D03*
X134683500Y-107188000D03*
X134683500Y-108457996D03*
D12*
X136588500Y-91474010D03*
X138684000Y-91474010D03*
X137668000Y-91474010D03*
X142240000Y-91884500D03*
X142811500Y-102171500D03*
X132461000Y-109855000D03*
D13*
X139382500Y-106553000D03*
D12*
X139382502Y-97218500D03*
X139382500Y-100909044D03*
X142811500Y-103187500D03*
D13*
X128206500Y-92710000D03*
X125920500Y-97345524D03*
X141006756Y-90641238D03*
X135445500Y-95186500D03*
X136207500Y-100838000D03*
X134429500Y-96456500D03*
X135445500Y-99975000D03*
X135364664Y-98904200D03*
X135382000Y-96266004D03*
D14*
X124460000Y-91440000D02*
X127000000Y-91440000D01*
X144780000Y-91440000D02*
X142875000Y-93345000D01*
X124460000Y-114300000D02*
X127635000Y-114300000D01*
X144780000Y-114300000D02*
X142875000Y-114300000D01*
X124460000Y-88900000D02*
X129540000Y-88900000D01*
D15*
X139382500Y-106553000D02*
X142811500Y-106553000D01*
D14*
X142811500Y-102171500D02*
X142811500Y-106553000D01*
X132910999Y-110304999D02*
X132461000Y-109855000D01*
X142811500Y-106553000D02*
X139059501Y-110304999D01*
X139059501Y-110304999D02*
X132910999Y-110304999D01*
X139382500Y-97218502D02*
X139382502Y-97218500D01*
X139382500Y-100909044D02*
X139382500Y-97218502D01*
X140652500Y-91884500D02*
X142240000Y-91884500D01*
X139192000Y-90424000D02*
X140652500Y-91884500D01*
X132514000Y-90424000D02*
X139192000Y-90424000D01*
X129540000Y-88900000D02*
X130990000Y-88900000D01*
X130990000Y-88900000D02*
X132514000Y-90424000D01*
X140514502Y-111760000D02*
X139059501Y-110304999D01*
X144780000Y-111760000D02*
X140514502Y-111760000D01*
D16*
X125920500Y-96850550D02*
X125920500Y-97345524D01*
X125920500Y-93027500D02*
X125920500Y-96850550D01*
X128206500Y-92710000D02*
X126238000Y-92710000D01*
X126238000Y-92710000D02*
X125920500Y-93027500D01*
X141006756Y-90146264D02*
X141006756Y-90641238D01*
X140970002Y-87693502D02*
X140970002Y-90109510D01*
X140970002Y-90109510D02*
X141006756Y-90146264D01*
X140906500Y-87630000D02*
X140970002Y-87693502D01*
D17*
X136209001Y-95950001D02*
X136209001Y-96856001D01*
X136209001Y-96856001D02*
X136207500Y-96857502D01*
X136207500Y-96857502D02*
X136207500Y-100343026D01*
X136207500Y-100343026D02*
X136207500Y-100838000D01*
X135445500Y-95186500D02*
X136209001Y-95950001D01*
X134429500Y-98959000D02*
X135445500Y-99975000D01*
X134429500Y-96456500D02*
X134429500Y-98959000D01*
X135364664Y-98904200D02*
X135364664Y-96283340D01*
X135364664Y-96283340D02*
X135382000Y-96266004D01*
G36*
X131883443Y-90995525D02*
X131910052Y-91027948D01*
X131942475Y-91054557D01*
X131942479Y-91054561D01*
X132020912Y-91118929D01*
X132039481Y-91134168D01*
X132187145Y-91213097D01*
X132347371Y-91261700D01*
X132472251Y-91274000D01*
X132472261Y-91274000D01*
X132513999Y-91278111D01*
X132555737Y-91274000D01*
X138839920Y-91274000D01*
X140021938Y-92456019D01*
X140048552Y-92488448D01*
X140177981Y-92594668D01*
X140325645Y-92673597D01*
X140485871Y-92722200D01*
X140610751Y-92734500D01*
X140610759Y-92734500D01*
X140652500Y-92738611D01*
X140694241Y-92734500D01*
X140822413Y-92734500D01*
X140822882Y-92739264D01*
X140831418Y-92767403D01*
X140845280Y-92793336D01*
X140863934Y-92816066D01*
X140886664Y-92834720D01*
X140912597Y-92848582D01*
X140940736Y-92857118D01*
X140970000Y-92860000D01*
X143360000Y-92860000D01*
X143360000Y-101455575D01*
X143237810Y-101373930D01*
X143074020Y-101306086D01*
X142900142Y-101271500D01*
X142722858Y-101271500D01*
X142548980Y-101306086D01*
X142385190Y-101373930D01*
X142237783Y-101472424D01*
X142112424Y-101597783D01*
X142013930Y-101745190D01*
X141946086Y-101908980D01*
X141911500Y-102082858D01*
X141911500Y-102260142D01*
X141946086Y-102434020D01*
X141961500Y-102471233D01*
X141961500Y-102887767D01*
X141946086Y-102924980D01*
X141911500Y-103098858D01*
X141911500Y-103276142D01*
X141946086Y-103450020D01*
X141961500Y-103487233D01*
X141961501Y-105803000D01*
X139662341Y-105803000D01*
X139615851Y-105783743D01*
X139461293Y-105753000D01*
X139303707Y-105753000D01*
X139149149Y-105783743D01*
X139003558Y-105844049D01*
X138872530Y-105931599D01*
X138761099Y-106043030D01*
X138673549Y-106174058D01*
X138613243Y-106319649D01*
X138582500Y-106474207D01*
X138582500Y-106631793D01*
X138613243Y-106786351D01*
X138673549Y-106931942D01*
X138761099Y-107062970D01*
X138872530Y-107174401D01*
X139003558Y-107261951D01*
X139149149Y-107322257D01*
X139303707Y-107353000D01*
X139461293Y-107353000D01*
X139615851Y-107322257D01*
X139662341Y-107303000D01*
X140859419Y-107303000D01*
X138707421Y-109454999D01*
X133269468Y-109454999D01*
X133258570Y-109428690D01*
X133160076Y-109281283D01*
X133034717Y-109155924D01*
X132887310Y-109057430D01*
X132723520Y-108989586D01*
X132549642Y-108955000D01*
X132372358Y-108955000D01*
X132198480Y-108989586D01*
X132034690Y-109057430D01*
X131887283Y-109155924D01*
X131761924Y-109281283D01*
X131663430Y-109428690D01*
X131595586Y-109592480D01*
X131561000Y-109766358D01*
X131561000Y-109943642D01*
X131595586Y-110117520D01*
X131663430Y-110281310D01*
X131761924Y-110428717D01*
X131887283Y-110554076D01*
X132034690Y-110652570D01*
X132071905Y-110667985D01*
X132280433Y-110876513D01*
X132307051Y-110908947D01*
X132436480Y-111015167D01*
X132584144Y-111094096D01*
X132744370Y-111142699D01*
X132869250Y-111154999D01*
X132869258Y-111154999D01*
X132910999Y-111159110D01*
X132952740Y-111154999D01*
X138707421Y-111154999D01*
X139883940Y-112331519D01*
X139910554Y-112363948D01*
X140039983Y-112470168D01*
X140187647Y-112549097D01*
X140347872Y-112597700D01*
X140363515Y-112599241D01*
X140472753Y-112610000D01*
X140472760Y-112610000D01*
X140514501Y-112614111D01*
X140556242Y-112610000D01*
X143360000Y-112610000D01*
X143360000Y-113798359D01*
X143310381Y-113961939D01*
X143360000Y-114051174D01*
X143360000Y-114548826D01*
X143310381Y-114638061D01*
X143354952Y-114785000D01*
X125885048Y-114785000D01*
X125929619Y-114638061D01*
X125880000Y-114548826D01*
X125880000Y-114051174D01*
X125929619Y-113961939D01*
X125880000Y-113798359D01*
X125880000Y-98145524D01*
X125999293Y-98145524D01*
X126153851Y-98114781D01*
X126299442Y-98054475D01*
X126430470Y-97966925D01*
X126541901Y-97855494D01*
X126629451Y-97724466D01*
X126689757Y-97578875D01*
X126720500Y-97424317D01*
X126720500Y-97266731D01*
X126689757Y-97112173D01*
X126629451Y-96966582D01*
X126570500Y-96878355D01*
X126570500Y-96377707D01*
X133629500Y-96377707D01*
X133629500Y-96535293D01*
X133660243Y-96689851D01*
X133720549Y-96835442D01*
X133808099Y-96966470D01*
X133829500Y-96987871D01*
X133829501Y-98929517D01*
X133826597Y-98959000D01*
X133838182Y-99076620D01*
X133868025Y-99175000D01*
X133872491Y-99189721D01*
X133928205Y-99293955D01*
X134003184Y-99385317D01*
X134026081Y-99404108D01*
X134645500Y-100023528D01*
X134645500Y-100053793D01*
X134676243Y-100208351D01*
X134736549Y-100353942D01*
X134824099Y-100484970D01*
X134935530Y-100596401D01*
X135066558Y-100683951D01*
X135212149Y-100744257D01*
X135366707Y-100775000D01*
X135407500Y-100775000D01*
X135407500Y-100916793D01*
X135438243Y-101071351D01*
X135498549Y-101216942D01*
X135586099Y-101347970D01*
X135697530Y-101459401D01*
X135828558Y-101546951D01*
X135974149Y-101607257D01*
X136128707Y-101638000D01*
X136286293Y-101638000D01*
X136440851Y-101607257D01*
X136586442Y-101546951D01*
X136717470Y-101459401D01*
X136828901Y-101347970D01*
X136916451Y-101216942D01*
X136976757Y-101071351D01*
X137007500Y-100916793D01*
X137007500Y-100820402D01*
X138482500Y-100820402D01*
X138482500Y-100997686D01*
X138517086Y-101171564D01*
X138584930Y-101335354D01*
X138683424Y-101482761D01*
X138808783Y-101608120D01*
X138956190Y-101706614D01*
X139119980Y-101774458D01*
X139293858Y-101809044D01*
X139471142Y-101809044D01*
X139645020Y-101774458D01*
X139808810Y-101706614D01*
X139956217Y-101608120D01*
X140081576Y-101482761D01*
X140180070Y-101335354D01*
X140247914Y-101171564D01*
X140282500Y-100997686D01*
X140282500Y-100820402D01*
X140247914Y-100646524D01*
X140232500Y-100609311D01*
X140232500Y-97518238D01*
X140247916Y-97481020D01*
X140282502Y-97307142D01*
X140282502Y-97129858D01*
X140247916Y-96955980D01*
X140180072Y-96792190D01*
X140081578Y-96644783D01*
X139956219Y-96519424D01*
X139808812Y-96420930D01*
X139645022Y-96353086D01*
X139471144Y-96318500D01*
X139293860Y-96318500D01*
X139119982Y-96353086D01*
X138956192Y-96420930D01*
X138808785Y-96519424D01*
X138683426Y-96644783D01*
X138584932Y-96792190D01*
X138517088Y-96955980D01*
X138482502Y-97129858D01*
X138482502Y-97307142D01*
X138517088Y-97481020D01*
X138532501Y-97518230D01*
X138532500Y-100609311D01*
X138517086Y-100646524D01*
X138482500Y-100820402D01*
X137007500Y-100820402D01*
X137007500Y-100759207D01*
X136976757Y-100604649D01*
X136916451Y-100459058D01*
X136828901Y-100328030D01*
X136807500Y-100306629D01*
X136807500Y-96900714D01*
X136809001Y-96885475D01*
X136811904Y-96856001D01*
X136809001Y-96826527D01*
X136809001Y-95979466D01*
X136811903Y-95950000D01*
X136809001Y-95920534D01*
X136809001Y-95920527D01*
X136800319Y-95832380D01*
X136796837Y-95820899D01*
X136785050Y-95782044D01*
X136766011Y-95719280D01*
X136710297Y-95615046D01*
X136635318Y-95523684D01*
X136612426Y-95504898D01*
X136245500Y-95137972D01*
X136245500Y-95107707D01*
X136214757Y-94953149D01*
X136154451Y-94807558D01*
X136066901Y-94676530D01*
X135955470Y-94565099D01*
X135824442Y-94477549D01*
X135678851Y-94417243D01*
X135524293Y-94386500D01*
X135366707Y-94386500D01*
X135212149Y-94417243D01*
X135066558Y-94477549D01*
X134935530Y-94565099D01*
X134824099Y-94676530D01*
X134736549Y-94807558D01*
X134676243Y-94953149D01*
X134645500Y-95107707D01*
X134645500Y-95265293D01*
X134676243Y-95419851D01*
X134736549Y-95565442D01*
X134822522Y-95694111D01*
X134780612Y-95736021D01*
X134662851Y-95687243D01*
X134508293Y-95656500D01*
X134350707Y-95656500D01*
X134196149Y-95687243D01*
X134050558Y-95747549D01*
X133919530Y-95835099D01*
X133808099Y-95946530D01*
X133720549Y-96077558D01*
X133660243Y-96223149D01*
X133629500Y-96377707D01*
X126570500Y-96377707D01*
X126570500Y-93360000D01*
X127739331Y-93360000D01*
X127827558Y-93418951D01*
X127973149Y-93479257D01*
X128127707Y-93510000D01*
X128285293Y-93510000D01*
X128439851Y-93479257D01*
X128585442Y-93418951D01*
X128716470Y-93331401D01*
X128827901Y-93219970D01*
X128915451Y-93088942D01*
X128975757Y-92943351D01*
X129006500Y-92788793D01*
X129006500Y-92631207D01*
X128975757Y-92476649D01*
X128915451Y-92331058D01*
X128827901Y-92200030D01*
X128716470Y-92088599D01*
X128585442Y-92001049D01*
X128439851Y-91940743D01*
X128285293Y-91910000D01*
X128127707Y-91910000D01*
X127973149Y-91940743D01*
X127827558Y-92001049D01*
X127739331Y-92060000D01*
X126269924Y-92060000D01*
X126238000Y-92056856D01*
X126206076Y-92060000D01*
X126206068Y-92060000D01*
X126110578Y-92069405D01*
X125988052Y-92106573D01*
X125880000Y-92164328D01*
X125880000Y-91941641D01*
X125929619Y-91778061D01*
X125880000Y-91688826D01*
X125880000Y-91191174D01*
X125929619Y-91101939D01*
X125880000Y-90938359D01*
X125880000Y-90320000D01*
X131207919Y-90320000D01*
X131883443Y-90995525D01*
X131883443Y-90995525D01*
G37*
X131883443Y-90995525D02*
X131910052Y-91027948D01*
X131942475Y-91054557D01*
X131942479Y-91054561D01*
X132020912Y-91118929D01*
X132039481Y-91134168D01*
X132187145Y-91213097D01*
X132347371Y-91261700D01*
X132472251Y-91274000D01*
X132472261Y-91274000D01*
X132513999Y-91278111D01*
X132555737Y-91274000D01*
X138839920Y-91274000D01*
X140021938Y-92456019D01*
X140048552Y-92488448D01*
X140177981Y-92594668D01*
X140325645Y-92673597D01*
X140485871Y-92722200D01*
X140610751Y-92734500D01*
X140610759Y-92734500D01*
X140652500Y-92738611D01*
X140694241Y-92734500D01*
X140822413Y-92734500D01*
X140822882Y-92739264D01*
X140831418Y-92767403D01*
X140845280Y-92793336D01*
X140863934Y-92816066D01*
X140886664Y-92834720D01*
X140912597Y-92848582D01*
X140940736Y-92857118D01*
X140970000Y-92860000D01*
X143360000Y-92860000D01*
X143360000Y-101455575D01*
X143237810Y-101373930D01*
X143074020Y-101306086D01*
X142900142Y-101271500D01*
X142722858Y-101271500D01*
X142548980Y-101306086D01*
X142385190Y-101373930D01*
X142237783Y-101472424D01*
X142112424Y-101597783D01*
X142013930Y-101745190D01*
X141946086Y-101908980D01*
X141911500Y-102082858D01*
X141911500Y-102260142D01*
X141946086Y-102434020D01*
X141961500Y-102471233D01*
X141961500Y-102887767D01*
X141946086Y-102924980D01*
X141911500Y-103098858D01*
X141911500Y-103276142D01*
X141946086Y-103450020D01*
X141961500Y-103487233D01*
X141961501Y-105803000D01*
X139662341Y-105803000D01*
X139615851Y-105783743D01*
X139461293Y-105753000D01*
X139303707Y-105753000D01*
X139149149Y-105783743D01*
X139003558Y-105844049D01*
X138872530Y-105931599D01*
X138761099Y-106043030D01*
X138673549Y-106174058D01*
X138613243Y-106319649D01*
X138582500Y-106474207D01*
X138582500Y-106631793D01*
X138613243Y-106786351D01*
X138673549Y-106931942D01*
X138761099Y-107062970D01*
X138872530Y-107174401D01*
X139003558Y-107261951D01*
X139149149Y-107322257D01*
X139303707Y-107353000D01*
X139461293Y-107353000D01*
X139615851Y-107322257D01*
X139662341Y-107303000D01*
X140859419Y-107303000D01*
X138707421Y-109454999D01*
X133269468Y-109454999D01*
X133258570Y-109428690D01*
X133160076Y-109281283D01*
X133034717Y-109155924D01*
X132887310Y-109057430D01*
X132723520Y-108989586D01*
X132549642Y-108955000D01*
X132372358Y-108955000D01*
X132198480Y-108989586D01*
X132034690Y-109057430D01*
X131887283Y-109155924D01*
X131761924Y-109281283D01*
X131663430Y-109428690D01*
X131595586Y-109592480D01*
X131561000Y-109766358D01*
X131561000Y-109943642D01*
X131595586Y-110117520D01*
X131663430Y-110281310D01*
X131761924Y-110428717D01*
X131887283Y-110554076D01*
X132034690Y-110652570D01*
X132071905Y-110667985D01*
X132280433Y-110876513D01*
X132307051Y-110908947D01*
X132436480Y-111015167D01*
X132584144Y-111094096D01*
X132744370Y-111142699D01*
X132869250Y-111154999D01*
X132869258Y-111154999D01*
X132910999Y-111159110D01*
X132952740Y-111154999D01*
X138707421Y-111154999D01*
X139883940Y-112331519D01*
X139910554Y-112363948D01*
X140039983Y-112470168D01*
X140187647Y-112549097D01*
X140347872Y-112597700D01*
X140363515Y-112599241D01*
X140472753Y-112610000D01*
X140472760Y-112610000D01*
X140514501Y-112614111D01*
X140556242Y-112610000D01*
X143360000Y-112610000D01*
X143360000Y-113798359D01*
X143310381Y-113961939D01*
X143360000Y-114051174D01*
X143360000Y-114548826D01*
X143310381Y-114638061D01*
X143354952Y-114785000D01*
X125885048Y-114785000D01*
X125929619Y-114638061D01*
X125880000Y-114548826D01*
X125880000Y-114051174D01*
X125929619Y-113961939D01*
X125880000Y-113798359D01*
X125880000Y-98145524D01*
X125999293Y-98145524D01*
X126153851Y-98114781D01*
X126299442Y-98054475D01*
X126430470Y-97966925D01*
X126541901Y-97855494D01*
X126629451Y-97724466D01*
X126689757Y-97578875D01*
X126720500Y-97424317D01*
X126720500Y-97266731D01*
X126689757Y-97112173D01*
X126629451Y-96966582D01*
X126570500Y-96878355D01*
X126570500Y-96377707D01*
X133629500Y-96377707D01*
X133629500Y-96535293D01*
X133660243Y-96689851D01*
X133720549Y-96835442D01*
X133808099Y-96966470D01*
X133829500Y-96987871D01*
X133829501Y-98929517D01*
X133826597Y-98959000D01*
X133838182Y-99076620D01*
X133868025Y-99175000D01*
X133872491Y-99189721D01*
X133928205Y-99293955D01*
X134003184Y-99385317D01*
X134026081Y-99404108D01*
X134645500Y-100023528D01*
X134645500Y-100053793D01*
X134676243Y-100208351D01*
X134736549Y-100353942D01*
X134824099Y-100484970D01*
X134935530Y-100596401D01*
X135066558Y-100683951D01*
X135212149Y-100744257D01*
X135366707Y-100775000D01*
X135407500Y-100775000D01*
X135407500Y-100916793D01*
X135438243Y-101071351D01*
X135498549Y-101216942D01*
X135586099Y-101347970D01*
X135697530Y-101459401D01*
X135828558Y-101546951D01*
X135974149Y-101607257D01*
X136128707Y-101638000D01*
X136286293Y-101638000D01*
X136440851Y-101607257D01*
X136586442Y-101546951D01*
X136717470Y-101459401D01*
X136828901Y-101347970D01*
X136916451Y-101216942D01*
X136976757Y-101071351D01*
X137007500Y-100916793D01*
X137007500Y-100820402D01*
X138482500Y-100820402D01*
X138482500Y-100997686D01*
X138517086Y-101171564D01*
X138584930Y-101335354D01*
X138683424Y-101482761D01*
X138808783Y-101608120D01*
X138956190Y-101706614D01*
X139119980Y-101774458D01*
X139293858Y-101809044D01*
X139471142Y-101809044D01*
X139645020Y-101774458D01*
X139808810Y-101706614D01*
X139956217Y-101608120D01*
X140081576Y-101482761D01*
X140180070Y-101335354D01*
X140247914Y-101171564D01*
X140282500Y-100997686D01*
X140282500Y-100820402D01*
X140247914Y-100646524D01*
X140232500Y-100609311D01*
X140232500Y-97518238D01*
X140247916Y-97481020D01*
X140282502Y-97307142D01*
X140282502Y-97129858D01*
X140247916Y-96955980D01*
X140180072Y-96792190D01*
X140081578Y-96644783D01*
X139956219Y-96519424D01*
X139808812Y-96420930D01*
X139645022Y-96353086D01*
X139471144Y-96318500D01*
X139293860Y-96318500D01*
X139119982Y-96353086D01*
X138956192Y-96420930D01*
X138808785Y-96519424D01*
X138683426Y-96644783D01*
X138584932Y-96792190D01*
X138517088Y-96955980D01*
X138482502Y-97129858D01*
X138482502Y-97307142D01*
X138517088Y-97481020D01*
X138532501Y-97518230D01*
X138532500Y-100609311D01*
X138517086Y-100646524D01*
X138482500Y-100820402D01*
X137007500Y-100820402D01*
X137007500Y-100759207D01*
X136976757Y-100604649D01*
X136916451Y-100459058D01*
X136828901Y-100328030D01*
X136807500Y-100306629D01*
X136807500Y-96900714D01*
X136809001Y-96885475D01*
X136811904Y-96856001D01*
X136809001Y-96826527D01*
X136809001Y-95979466D01*
X136811903Y-95950000D01*
X136809001Y-95920534D01*
X136809001Y-95920527D01*
X136800319Y-95832380D01*
X136796837Y-95820899D01*
X136785050Y-95782044D01*
X136766011Y-95719280D01*
X136710297Y-95615046D01*
X136635318Y-95523684D01*
X136612426Y-95504898D01*
X136245500Y-95137972D01*
X136245500Y-95107707D01*
X136214757Y-94953149D01*
X136154451Y-94807558D01*
X136066901Y-94676530D01*
X135955470Y-94565099D01*
X135824442Y-94477549D01*
X135678851Y-94417243D01*
X135524293Y-94386500D01*
X135366707Y-94386500D01*
X135212149Y-94417243D01*
X135066558Y-94477549D01*
X134935530Y-94565099D01*
X134824099Y-94676530D01*
X134736549Y-94807558D01*
X134676243Y-94953149D01*
X134645500Y-95107707D01*
X134645500Y-95265293D01*
X134676243Y-95419851D01*
X134736549Y-95565442D01*
X134822522Y-95694111D01*
X134780612Y-95736021D01*
X134662851Y-95687243D01*
X134508293Y-95656500D01*
X134350707Y-95656500D01*
X134196149Y-95687243D01*
X134050558Y-95747549D01*
X133919530Y-95835099D01*
X133808099Y-95946530D01*
X133720549Y-96077558D01*
X133660243Y-96223149D01*
X133629500Y-96377707D01*
X126570500Y-96377707D01*
X126570500Y-93360000D01*
X127739331Y-93360000D01*
X127827558Y-93418951D01*
X127973149Y-93479257D01*
X128127707Y-93510000D01*
X128285293Y-93510000D01*
X128439851Y-93479257D01*
X128585442Y-93418951D01*
X128716470Y-93331401D01*
X128827901Y-93219970D01*
X128915451Y-93088942D01*
X128975757Y-92943351D01*
X129006500Y-92788793D01*
X129006500Y-92631207D01*
X128975757Y-92476649D01*
X128915451Y-92331058D01*
X128827901Y-92200030D01*
X128716470Y-92088599D01*
X128585442Y-92001049D01*
X128439851Y-91940743D01*
X128285293Y-91910000D01*
X128127707Y-91910000D01*
X127973149Y-91940743D01*
X127827558Y-92001049D01*
X127739331Y-92060000D01*
X126269924Y-92060000D01*
X126238000Y-92056856D01*
X126206076Y-92060000D01*
X126206068Y-92060000D01*
X126110578Y-92069405D01*
X125988052Y-92106573D01*
X125880000Y-92164328D01*
X125880000Y-91941641D01*
X125929619Y-91778061D01*
X125880000Y-91688826D01*
X125880000Y-91191174D01*
X125929619Y-91101939D01*
X125880000Y-90938359D01*
X125880000Y-90320000D01*
X131207919Y-90320000D01*
X131883443Y-90995525D01*
G36*
X145646000Y-87607000D02*
X123594000Y-87607000D01*
X123594000Y-86360000D01*
X128334194Y-86360000D01*
X128357363Y-86595241D01*
X128425981Y-86821442D01*
X128537409Y-87029910D01*
X128687366Y-87212634D01*
X128870090Y-87362591D01*
X129078558Y-87474019D01*
X129304759Y-87542637D01*
X129481050Y-87560000D01*
X129598950Y-87560000D01*
X129775241Y-87542637D01*
X130001442Y-87474019D01*
X130209910Y-87362591D01*
X130392634Y-87212634D01*
X130542591Y-87029910D01*
X130654019Y-86821442D01*
X130722637Y-86595241D01*
X130745806Y-86360000D01*
X133414194Y-86360000D01*
X133437363Y-86595241D01*
X133505981Y-86821442D01*
X133617409Y-87029910D01*
X133767366Y-87212634D01*
X133950090Y-87362591D01*
X134158558Y-87474019D01*
X134384759Y-87542637D01*
X134561050Y-87560000D01*
X134678950Y-87560000D01*
X134855241Y-87542637D01*
X135081442Y-87474019D01*
X135289910Y-87362591D01*
X135472634Y-87212634D01*
X135622591Y-87029910D01*
X135734019Y-86821442D01*
X135802637Y-86595241D01*
X135825806Y-86360000D01*
X135954194Y-86360000D01*
X135977363Y-86595241D01*
X136045981Y-86821442D01*
X136157409Y-87029910D01*
X136307366Y-87212634D01*
X136490090Y-87362591D01*
X136698558Y-87474019D01*
X136924759Y-87542637D01*
X137101050Y-87560000D01*
X137218950Y-87560000D01*
X137395241Y-87542637D01*
X137621442Y-87474019D01*
X137829910Y-87362591D01*
X138012634Y-87212634D01*
X138162591Y-87029910D01*
X138274019Y-86821442D01*
X138342637Y-86595241D01*
X138365806Y-86360000D01*
X138494194Y-86360000D01*
X138517363Y-86595241D01*
X138585981Y-86821442D01*
X138697409Y-87029910D01*
X138847366Y-87212634D01*
X139030090Y-87362591D01*
X139238558Y-87474019D01*
X139464759Y-87542637D01*
X139641050Y-87560000D01*
X139758950Y-87560000D01*
X139935241Y-87542637D01*
X140161442Y-87474019D01*
X140369910Y-87362591D01*
X140552634Y-87212634D01*
X140702591Y-87029910D01*
X140814019Y-86821442D01*
X140882637Y-86595241D01*
X140905806Y-86360000D01*
X140882637Y-86124759D01*
X140814019Y-85898558D01*
X140702591Y-85690090D01*
X140554796Y-85510000D01*
X141038307Y-85510000D01*
X141038307Y-87210000D01*
X141045065Y-87278612D01*
X141065078Y-87344587D01*
X141097578Y-87405390D01*
X141141315Y-87458685D01*
X141194610Y-87502422D01*
X141255413Y-87534922D01*
X141321388Y-87554935D01*
X141390000Y-87561693D01*
X143090000Y-87561693D01*
X143158612Y-87554935D01*
X143224587Y-87534922D01*
X143285390Y-87502422D01*
X143338685Y-87458685D01*
X143382422Y-87405390D01*
X143414922Y-87344587D01*
X143434935Y-87278612D01*
X143441693Y-87210000D01*
X143441693Y-85510000D01*
X143434935Y-85441388D01*
X143414922Y-85375413D01*
X143382422Y-85314610D01*
X143338685Y-85261315D01*
X143285390Y-85217578D01*
X143224587Y-85185078D01*
X143158612Y-85165065D01*
X143090000Y-85158307D01*
X141390000Y-85158307D01*
X141321388Y-85165065D01*
X141255413Y-85185078D01*
X141194610Y-85217578D01*
X141141315Y-85261315D01*
X141097578Y-85314610D01*
X141065078Y-85375413D01*
X141045065Y-85441388D01*
X141038307Y-85510000D01*
X140554796Y-85510000D01*
X140552634Y-85507366D01*
X140369910Y-85357409D01*
X140161442Y-85245981D01*
X139935241Y-85177363D01*
X139758950Y-85160000D01*
X139641050Y-85160000D01*
X139464759Y-85177363D01*
X139238558Y-85245981D01*
X139030090Y-85357409D01*
X138847366Y-85507366D01*
X138697409Y-85690090D01*
X138585981Y-85898558D01*
X138517363Y-86124759D01*
X138494194Y-86360000D01*
X138365806Y-86360000D01*
X138342637Y-86124759D01*
X138274019Y-85898558D01*
X138162591Y-85690090D01*
X138012634Y-85507366D01*
X137829910Y-85357409D01*
X137621442Y-85245981D01*
X137395241Y-85177363D01*
X137218950Y-85160000D01*
X137101050Y-85160000D01*
X136924759Y-85177363D01*
X136698558Y-85245981D01*
X136490090Y-85357409D01*
X136307366Y-85507366D01*
X136157409Y-85690090D01*
X136045981Y-85898558D01*
X135977363Y-86124759D01*
X135954194Y-86360000D01*
X135825806Y-86360000D01*
X135802637Y-86124759D01*
X135734019Y-85898558D01*
X135622591Y-85690090D01*
X135472634Y-85507366D01*
X135289910Y-85357409D01*
X135081442Y-85245981D01*
X134855241Y-85177363D01*
X134678950Y-85160000D01*
X134561050Y-85160000D01*
X134384759Y-85177363D01*
X134158558Y-85245981D01*
X133950090Y-85357409D01*
X133767366Y-85507366D01*
X133617409Y-85690090D01*
X133505981Y-85898558D01*
X133437363Y-86124759D01*
X133414194Y-86360000D01*
X130745806Y-86360000D01*
X130722637Y-86124759D01*
X130654019Y-85898558D01*
X130542591Y-85690090D01*
X130392634Y-85507366D01*
X130209910Y-85357409D01*
X130001442Y-85245981D01*
X129775241Y-85177363D01*
X129598950Y-85160000D01*
X129481050Y-85160000D01*
X129304759Y-85177363D01*
X129078558Y-85245981D01*
X128870090Y-85357409D01*
X128687366Y-85507366D01*
X128537409Y-85690090D01*
X128425981Y-85898558D01*
X128357363Y-86124759D01*
X128334194Y-86360000D01*
X123594000Y-86360000D01*
X123594000Y-85113000D01*
X145646000Y-85113000D01*
X145646000Y-87607000D01*
X145646000Y-87607000D01*
G37*
X145646000Y-87607000D02*
X123594000Y-87607000D01*
X123594000Y-86360000D01*
X128334194Y-86360000D01*
X128357363Y-86595241D01*
X128425981Y-86821442D01*
X128537409Y-87029910D01*
X128687366Y-87212634D01*
X128870090Y-87362591D01*
X129078558Y-87474019D01*
X129304759Y-87542637D01*
X129481050Y-87560000D01*
X129598950Y-87560000D01*
X129775241Y-87542637D01*
X130001442Y-87474019D01*
X130209910Y-87362591D01*
X130392634Y-87212634D01*
X130542591Y-87029910D01*
X130654019Y-86821442D01*
X130722637Y-86595241D01*
X130745806Y-86360000D01*
X133414194Y-86360000D01*
X133437363Y-86595241D01*
X133505981Y-86821442D01*
X133617409Y-87029910D01*
X133767366Y-87212634D01*
X133950090Y-87362591D01*
X134158558Y-87474019D01*
X134384759Y-87542637D01*
X134561050Y-87560000D01*
X134678950Y-87560000D01*
X134855241Y-87542637D01*
X135081442Y-87474019D01*
X135289910Y-87362591D01*
X135472634Y-87212634D01*
X135622591Y-87029910D01*
X135734019Y-86821442D01*
X135802637Y-86595241D01*
X135825806Y-86360000D01*
X135954194Y-86360000D01*
X135977363Y-86595241D01*
X136045981Y-86821442D01*
X136157409Y-87029910D01*
X136307366Y-87212634D01*
X136490090Y-87362591D01*
X136698558Y-87474019D01*
X136924759Y-87542637D01*
X137101050Y-87560000D01*
X137218950Y-87560000D01*
X137395241Y-87542637D01*
X137621442Y-87474019D01*
X137829910Y-87362591D01*
X138012634Y-87212634D01*
X138162591Y-87029910D01*
X138274019Y-86821442D01*
X138342637Y-86595241D01*
X138365806Y-86360000D01*
X138494194Y-86360000D01*
X138517363Y-86595241D01*
X138585981Y-86821442D01*
X138697409Y-87029910D01*
X138847366Y-87212634D01*
X139030090Y-87362591D01*
X139238558Y-87474019D01*
X139464759Y-87542637D01*
X139641050Y-87560000D01*
X139758950Y-87560000D01*
X139935241Y-87542637D01*
X140161442Y-87474019D01*
X140369910Y-87362591D01*
X140552634Y-87212634D01*
X140702591Y-87029910D01*
X140814019Y-86821442D01*
X140882637Y-86595241D01*
X140905806Y-86360000D01*
X140882637Y-86124759D01*
X140814019Y-85898558D01*
X140702591Y-85690090D01*
X140554796Y-85510000D01*
X141038307Y-85510000D01*
X141038307Y-87210000D01*
X141045065Y-87278612D01*
X141065078Y-87344587D01*
X141097578Y-87405390D01*
X141141315Y-87458685D01*
X141194610Y-87502422D01*
X141255413Y-87534922D01*
X141321388Y-87554935D01*
X141390000Y-87561693D01*
X143090000Y-87561693D01*
X143158612Y-87554935D01*
X143224587Y-87534922D01*
X143285390Y-87502422D01*
X143338685Y-87458685D01*
X143382422Y-87405390D01*
X143414922Y-87344587D01*
X143434935Y-87278612D01*
X143441693Y-87210000D01*
X143441693Y-85510000D01*
X143434935Y-85441388D01*
X143414922Y-85375413D01*
X143382422Y-85314610D01*
X143338685Y-85261315D01*
X143285390Y-85217578D01*
X143224587Y-85185078D01*
X143158612Y-85165065D01*
X143090000Y-85158307D01*
X141390000Y-85158307D01*
X141321388Y-85165065D01*
X141255413Y-85185078D01*
X141194610Y-85217578D01*
X141141315Y-85261315D01*
X141097578Y-85314610D01*
X141065078Y-85375413D01*
X141045065Y-85441388D01*
X141038307Y-85510000D01*
X140554796Y-85510000D01*
X140552634Y-85507366D01*
X140369910Y-85357409D01*
X140161442Y-85245981D01*
X139935241Y-85177363D01*
X139758950Y-85160000D01*
X139641050Y-85160000D01*
X139464759Y-85177363D01*
X139238558Y-85245981D01*
X139030090Y-85357409D01*
X138847366Y-85507366D01*
X138697409Y-85690090D01*
X138585981Y-85898558D01*
X138517363Y-86124759D01*
X138494194Y-86360000D01*
X138365806Y-86360000D01*
X138342637Y-86124759D01*
X138274019Y-85898558D01*
X138162591Y-85690090D01*
X138012634Y-85507366D01*
X137829910Y-85357409D01*
X137621442Y-85245981D01*
X137395241Y-85177363D01*
X137218950Y-85160000D01*
X137101050Y-85160000D01*
X136924759Y-85177363D01*
X136698558Y-85245981D01*
X136490090Y-85357409D01*
X136307366Y-85507366D01*
X136157409Y-85690090D01*
X136045981Y-85898558D01*
X135977363Y-86124759D01*
X135954194Y-86360000D01*
X135825806Y-86360000D01*
X135802637Y-86124759D01*
X135734019Y-85898558D01*
X135622591Y-85690090D01*
X135472634Y-85507366D01*
X135289910Y-85357409D01*
X135081442Y-85245981D01*
X134855241Y-85177363D01*
X134678950Y-85160000D01*
X134561050Y-85160000D01*
X134384759Y-85177363D01*
X134158558Y-85245981D01*
X133950090Y-85357409D01*
X133767366Y-85507366D01*
X133617409Y-85690090D01*
X133505981Y-85898558D01*
X133437363Y-86124759D01*
X133414194Y-86360000D01*
X130745806Y-86360000D01*
X130722637Y-86124759D01*
X130654019Y-85898558D01*
X130542591Y-85690090D01*
X130392634Y-85507366D01*
X130209910Y-85357409D01*
X130001442Y-85245981D01*
X129775241Y-85177363D01*
X129598950Y-85160000D01*
X129481050Y-85160000D01*
X129304759Y-85177363D01*
X129078558Y-85245981D01*
X128870090Y-85357409D01*
X128687366Y-85507366D01*
X128537409Y-85690090D01*
X128425981Y-85898558D01*
X128357363Y-86124759D01*
X128334194Y-86360000D01*
X123594000Y-86360000D01*
X123594000Y-85113000D01*
X145646000Y-85113000D01*
X145646000Y-87607000D01*
M02*
