M48
;DRILL file {KiCad (5.0.2)-1} date 28/02/2019 15:12:48
;FORMAT={-:-/ absolute / metric / decimal}
FMAT,2
METRIC,TZ
T1C0.300
T2C0.500
T3C1.000
%
G90
G05
T1
X125.92Y-97.346
X126.873Y-107.95
X127.063Y-106.045
X128.079Y-93.916
X128.207Y-92.71
X128.905Y-94.551
X131.572Y-92.71
X132.715Y-94.551
X134.429Y-96.456
X134.556Y-106.045
X134.683Y-107.188
X134.683Y-108.458
X135.365Y-98.904
X135.382Y-96.266
X135.445Y-95.186
X135.445Y-99.975
X136.207Y-100.838
X138.367Y-108.585
X139.382Y-106.553
X141.007Y-90.641
T2
X131.96Y-102.163
X132.461Y-109.855
X135.128Y-101.981
X136.588Y-91.474
X137.668Y-91.474
X138.684Y-91.474
X139.382Y-100.909
X139.383Y-97.218
X141.097Y-94.17
X142.24Y-91.885
X142.303Y-94.17
X142.811Y-102.171
X142.811Y-103.188
T3
X144.78Y-86.36
X144.78Y-88.9
X144.78Y-91.44
X144.78Y-93.98
X144.78Y-96.52
X144.78Y-99.06
X144.78Y-101.6
X144.78Y-104.14
X144.78Y-106.68
X144.78Y-109.22
X144.78Y-111.76
X144.78Y-114.3
X134.62Y-86.36
X137.16Y-86.36
X139.7Y-86.36
X142.24Y-86.36
X129.54Y-86.36
X129.54Y-88.9
X134.62Y-88.9
X137.16Y-88.9
X139.7Y-88.9
X142.24Y-88.9
X124.46Y-86.36
X124.46Y-88.9
X124.46Y-91.44
X124.46Y-93.98
X124.46Y-96.52
X124.46Y-99.06
X124.46Y-101.6
X124.46Y-104.14
X124.46Y-106.68
X124.46Y-109.22
X124.46Y-111.76
X124.46Y-114.3
T0
M30
