%TF.GenerationSoftware,KiCad,Pcbnew,(5.0.2)-1*%
%TF.CreationDate,2019-02-28T15:11:47+01:00*%
%TF.ProjectId,STM32nano,53544d33-326e-4616-9e6f-2e6b69636164,rev?*%
%TF.SameCoordinates,Original*%
%TF.FileFunction,Copper,L1,Top*%
%TF.FilePolarity,Positive*%
%FSLAX46Y46*%
G04 Gerber Fmt 4.6, Leading zero omitted, Abs format (unit mm)*
G04 Created by KiCad (PCBNEW (5.0.2)-1) date 28/02/2019 15:11:48*
%MOMM*%
%LPD*%
G01*
G04 APERTURE LIST*
%ADD10O,1.700000X1.700000*%
%ADD11R,1.700000X1.700000*%
%ADD12C,0.100000*%
%ADD13C,0.875000*%
%ADD14R,3.800000X2.000000*%
%ADD15R,1.500000X2.000000*%
%ADD16R,0.900000X1.700000*%
%ADD17R,1.000000X0.900000*%
%ADD18C,0.975000*%
%ADD19R,1.450000X0.450000*%
%ADD20C,0.900000*%
%ADD21C,0.700000*%
%ADD22C,0.600000*%
%ADD23C,0.400000*%
%ADD24C,0.800000*%
%ADD25C,0.300000*%
G04 APERTURE END LIST*
D10*
X124460000Y-114300000D03*
X124460000Y-111760000D03*
X124460000Y-109220000D03*
X124460000Y-106680000D03*
X124460000Y-104140000D03*
X124460000Y-101600000D03*
X124460000Y-99060000D03*
X124460000Y-96520000D03*
X124460000Y-93980000D03*
X124460000Y-91440000D03*
X124460000Y-88900000D03*
D11*
X124460000Y-86360000D03*
X144780000Y-86360000D03*
D10*
X144780000Y-88900000D03*
X144780000Y-91440000D03*
X144780000Y-93980000D03*
X144780000Y-96520000D03*
X144780000Y-99060000D03*
X144780000Y-101600000D03*
X144780000Y-104140000D03*
X144780000Y-106680000D03*
X144780000Y-109220000D03*
X144780000Y-111760000D03*
X144780000Y-114300000D03*
D12*
G36*
X129500691Y-109381053D02*
X129521926Y-109384203D01*
X129542750Y-109389419D01*
X129562962Y-109396651D01*
X129582368Y-109405830D01*
X129600781Y-109416866D01*
X129618024Y-109429654D01*
X129633930Y-109444070D01*
X129648346Y-109459976D01*
X129661134Y-109477219D01*
X129672170Y-109495632D01*
X129681349Y-109515038D01*
X129688581Y-109535250D01*
X129693797Y-109556074D01*
X129696947Y-109577309D01*
X129698000Y-109598750D01*
X129698000Y-110111250D01*
X129696947Y-110132691D01*
X129693797Y-110153926D01*
X129688581Y-110174750D01*
X129681349Y-110194962D01*
X129672170Y-110214368D01*
X129661134Y-110232781D01*
X129648346Y-110250024D01*
X129633930Y-110265930D01*
X129618024Y-110280346D01*
X129600781Y-110293134D01*
X129582368Y-110304170D01*
X129562962Y-110313349D01*
X129542750Y-110320581D01*
X129521926Y-110325797D01*
X129500691Y-110328947D01*
X129479250Y-110330000D01*
X129041750Y-110330000D01*
X129020309Y-110328947D01*
X128999074Y-110325797D01*
X128978250Y-110320581D01*
X128958038Y-110313349D01*
X128938632Y-110304170D01*
X128920219Y-110293134D01*
X128902976Y-110280346D01*
X128887070Y-110265930D01*
X128872654Y-110250024D01*
X128859866Y-110232781D01*
X128848830Y-110214368D01*
X128839651Y-110194962D01*
X128832419Y-110174750D01*
X128827203Y-110153926D01*
X128824053Y-110132691D01*
X128823000Y-110111250D01*
X128823000Y-109598750D01*
X128824053Y-109577309D01*
X128827203Y-109556074D01*
X128832419Y-109535250D01*
X128839651Y-109515038D01*
X128848830Y-109495632D01*
X128859866Y-109477219D01*
X128872654Y-109459976D01*
X128887070Y-109444070D01*
X128902976Y-109429654D01*
X128920219Y-109416866D01*
X128938632Y-109405830D01*
X128958038Y-109396651D01*
X128978250Y-109389419D01*
X128999074Y-109384203D01*
X129020309Y-109381053D01*
X129041750Y-109380000D01*
X129479250Y-109380000D01*
X129500691Y-109381053D01*
X129500691Y-109381053D01*
G37*
D13*
X129260500Y-109855000D03*
D12*
G36*
X131075691Y-109381053D02*
X131096926Y-109384203D01*
X131117750Y-109389419D01*
X131137962Y-109396651D01*
X131157368Y-109405830D01*
X131175781Y-109416866D01*
X131193024Y-109429654D01*
X131208930Y-109444070D01*
X131223346Y-109459976D01*
X131236134Y-109477219D01*
X131247170Y-109495632D01*
X131256349Y-109515038D01*
X131263581Y-109535250D01*
X131268797Y-109556074D01*
X131271947Y-109577309D01*
X131273000Y-109598750D01*
X131273000Y-110111250D01*
X131271947Y-110132691D01*
X131268797Y-110153926D01*
X131263581Y-110174750D01*
X131256349Y-110194962D01*
X131247170Y-110214368D01*
X131236134Y-110232781D01*
X131223346Y-110250024D01*
X131208930Y-110265930D01*
X131193024Y-110280346D01*
X131175781Y-110293134D01*
X131157368Y-110304170D01*
X131137962Y-110313349D01*
X131117750Y-110320581D01*
X131096926Y-110325797D01*
X131075691Y-110328947D01*
X131054250Y-110330000D01*
X130616750Y-110330000D01*
X130595309Y-110328947D01*
X130574074Y-110325797D01*
X130553250Y-110320581D01*
X130533038Y-110313349D01*
X130513632Y-110304170D01*
X130495219Y-110293134D01*
X130477976Y-110280346D01*
X130462070Y-110265930D01*
X130447654Y-110250024D01*
X130434866Y-110232781D01*
X130423830Y-110214368D01*
X130414651Y-110194962D01*
X130407419Y-110174750D01*
X130402203Y-110153926D01*
X130399053Y-110132691D01*
X130398000Y-110111250D01*
X130398000Y-109598750D01*
X130399053Y-109577309D01*
X130402203Y-109556074D01*
X130407419Y-109535250D01*
X130414651Y-109515038D01*
X130423830Y-109495632D01*
X130434866Y-109477219D01*
X130447654Y-109459976D01*
X130462070Y-109444070D01*
X130477976Y-109429654D01*
X130495219Y-109416866D01*
X130513632Y-109405830D01*
X130533038Y-109396651D01*
X130553250Y-109389419D01*
X130574074Y-109384203D01*
X130595309Y-109381053D01*
X130616750Y-109380000D01*
X131054250Y-109380000D01*
X131075691Y-109381053D01*
X131075691Y-109381053D01*
G37*
D13*
X130835500Y-109855000D03*
D14*
X139382500Y-102146500D03*
D15*
X139382500Y-95846500D03*
X137082500Y-95846500D03*
X141682500Y-95846500D03*
D10*
X134620000Y-88900000D03*
X137160000Y-88900000D03*
X139700000Y-88900000D03*
D11*
X142240000Y-88900000D03*
X142240000Y-86360000D03*
D10*
X139700000Y-86360000D03*
X137160000Y-86360000D03*
X134620000Y-86360000D03*
D12*
G36*
X139635191Y-108746053D02*
X139656426Y-108749203D01*
X139677250Y-108754419D01*
X139697462Y-108761651D01*
X139716868Y-108770830D01*
X139735281Y-108781866D01*
X139752524Y-108794654D01*
X139768430Y-108809070D01*
X139782846Y-108824976D01*
X139795634Y-108842219D01*
X139806670Y-108860632D01*
X139815849Y-108880038D01*
X139823081Y-108900250D01*
X139828297Y-108921074D01*
X139831447Y-108942309D01*
X139832500Y-108963750D01*
X139832500Y-109476250D01*
X139831447Y-109497691D01*
X139828297Y-109518926D01*
X139823081Y-109539750D01*
X139815849Y-109559962D01*
X139806670Y-109579368D01*
X139795634Y-109597781D01*
X139782846Y-109615024D01*
X139768430Y-109630930D01*
X139752524Y-109645346D01*
X139735281Y-109658134D01*
X139716868Y-109669170D01*
X139697462Y-109678349D01*
X139677250Y-109685581D01*
X139656426Y-109690797D01*
X139635191Y-109693947D01*
X139613750Y-109695000D01*
X139176250Y-109695000D01*
X139154809Y-109693947D01*
X139133574Y-109690797D01*
X139112750Y-109685581D01*
X139092538Y-109678349D01*
X139073132Y-109669170D01*
X139054719Y-109658134D01*
X139037476Y-109645346D01*
X139021570Y-109630930D01*
X139007154Y-109615024D01*
X138994366Y-109597781D01*
X138983330Y-109579368D01*
X138974151Y-109559962D01*
X138966919Y-109539750D01*
X138961703Y-109518926D01*
X138958553Y-109497691D01*
X138957500Y-109476250D01*
X138957500Y-108963750D01*
X138958553Y-108942309D01*
X138961703Y-108921074D01*
X138966919Y-108900250D01*
X138974151Y-108880038D01*
X138983330Y-108860632D01*
X138994366Y-108842219D01*
X139007154Y-108824976D01*
X139021570Y-108809070D01*
X139037476Y-108794654D01*
X139054719Y-108781866D01*
X139073132Y-108770830D01*
X139092538Y-108761651D01*
X139112750Y-108754419D01*
X139133574Y-108749203D01*
X139154809Y-108746053D01*
X139176250Y-108745000D01*
X139613750Y-108745000D01*
X139635191Y-108746053D01*
X139635191Y-108746053D01*
G37*
D13*
X139395000Y-109220000D03*
D12*
G36*
X141210191Y-108746053D02*
X141231426Y-108749203D01*
X141252250Y-108754419D01*
X141272462Y-108761651D01*
X141291868Y-108770830D01*
X141310281Y-108781866D01*
X141327524Y-108794654D01*
X141343430Y-108809070D01*
X141357846Y-108824976D01*
X141370634Y-108842219D01*
X141381670Y-108860632D01*
X141390849Y-108880038D01*
X141398081Y-108900250D01*
X141403297Y-108921074D01*
X141406447Y-108942309D01*
X141407500Y-108963750D01*
X141407500Y-109476250D01*
X141406447Y-109497691D01*
X141403297Y-109518926D01*
X141398081Y-109539750D01*
X141390849Y-109559962D01*
X141381670Y-109579368D01*
X141370634Y-109597781D01*
X141357846Y-109615024D01*
X141343430Y-109630930D01*
X141327524Y-109645346D01*
X141310281Y-109658134D01*
X141291868Y-109669170D01*
X141272462Y-109678349D01*
X141252250Y-109685581D01*
X141231426Y-109690797D01*
X141210191Y-109693947D01*
X141188750Y-109695000D01*
X140751250Y-109695000D01*
X140729809Y-109693947D01*
X140708574Y-109690797D01*
X140687750Y-109685581D01*
X140667538Y-109678349D01*
X140648132Y-109669170D01*
X140629719Y-109658134D01*
X140612476Y-109645346D01*
X140596570Y-109630930D01*
X140582154Y-109615024D01*
X140569366Y-109597781D01*
X140558330Y-109579368D01*
X140549151Y-109559962D01*
X140541919Y-109539750D01*
X140536703Y-109518926D01*
X140533553Y-109497691D01*
X140532500Y-109476250D01*
X140532500Y-108963750D01*
X140533553Y-108942309D01*
X140536703Y-108921074D01*
X140541919Y-108900250D01*
X140549151Y-108880038D01*
X140558330Y-108860632D01*
X140569366Y-108842219D01*
X140582154Y-108824976D01*
X140596570Y-108809070D01*
X140612476Y-108794654D01*
X140629719Y-108781866D01*
X140648132Y-108770830D01*
X140667538Y-108761651D01*
X140687750Y-108754419D01*
X140708574Y-108749203D01*
X140729809Y-108746053D01*
X140751250Y-108745000D01*
X141188750Y-108745000D01*
X141210191Y-108746053D01*
X141210191Y-108746053D01*
G37*
D13*
X140970000Y-109220000D03*
D12*
G36*
X139635191Y-107031553D02*
X139656426Y-107034703D01*
X139677250Y-107039919D01*
X139697462Y-107047151D01*
X139716868Y-107056330D01*
X139735281Y-107067366D01*
X139752524Y-107080154D01*
X139768430Y-107094570D01*
X139782846Y-107110476D01*
X139795634Y-107127719D01*
X139806670Y-107146132D01*
X139815849Y-107165538D01*
X139823081Y-107185750D01*
X139828297Y-107206574D01*
X139831447Y-107227809D01*
X139832500Y-107249250D01*
X139832500Y-107761750D01*
X139831447Y-107783191D01*
X139828297Y-107804426D01*
X139823081Y-107825250D01*
X139815849Y-107845462D01*
X139806670Y-107864868D01*
X139795634Y-107883281D01*
X139782846Y-107900524D01*
X139768430Y-107916430D01*
X139752524Y-107930846D01*
X139735281Y-107943634D01*
X139716868Y-107954670D01*
X139697462Y-107963849D01*
X139677250Y-107971081D01*
X139656426Y-107976297D01*
X139635191Y-107979447D01*
X139613750Y-107980500D01*
X139176250Y-107980500D01*
X139154809Y-107979447D01*
X139133574Y-107976297D01*
X139112750Y-107971081D01*
X139092538Y-107963849D01*
X139073132Y-107954670D01*
X139054719Y-107943634D01*
X139037476Y-107930846D01*
X139021570Y-107916430D01*
X139007154Y-107900524D01*
X138994366Y-107883281D01*
X138983330Y-107864868D01*
X138974151Y-107845462D01*
X138966919Y-107825250D01*
X138961703Y-107804426D01*
X138958553Y-107783191D01*
X138957500Y-107761750D01*
X138957500Y-107249250D01*
X138958553Y-107227809D01*
X138961703Y-107206574D01*
X138966919Y-107185750D01*
X138974151Y-107165538D01*
X138983330Y-107146132D01*
X138994366Y-107127719D01*
X139007154Y-107110476D01*
X139021570Y-107094570D01*
X139037476Y-107080154D01*
X139054719Y-107067366D01*
X139073132Y-107056330D01*
X139092538Y-107047151D01*
X139112750Y-107039919D01*
X139133574Y-107034703D01*
X139154809Y-107031553D01*
X139176250Y-107030500D01*
X139613750Y-107030500D01*
X139635191Y-107031553D01*
X139635191Y-107031553D01*
G37*
D13*
X139395000Y-107505500D03*
D12*
G36*
X141210191Y-107031553D02*
X141231426Y-107034703D01*
X141252250Y-107039919D01*
X141272462Y-107047151D01*
X141291868Y-107056330D01*
X141310281Y-107067366D01*
X141327524Y-107080154D01*
X141343430Y-107094570D01*
X141357846Y-107110476D01*
X141370634Y-107127719D01*
X141381670Y-107146132D01*
X141390849Y-107165538D01*
X141398081Y-107185750D01*
X141403297Y-107206574D01*
X141406447Y-107227809D01*
X141407500Y-107249250D01*
X141407500Y-107761750D01*
X141406447Y-107783191D01*
X141403297Y-107804426D01*
X141398081Y-107825250D01*
X141390849Y-107845462D01*
X141381670Y-107864868D01*
X141370634Y-107883281D01*
X141357846Y-107900524D01*
X141343430Y-107916430D01*
X141327524Y-107930846D01*
X141310281Y-107943634D01*
X141291868Y-107954670D01*
X141272462Y-107963849D01*
X141252250Y-107971081D01*
X141231426Y-107976297D01*
X141210191Y-107979447D01*
X141188750Y-107980500D01*
X140751250Y-107980500D01*
X140729809Y-107979447D01*
X140708574Y-107976297D01*
X140687750Y-107971081D01*
X140667538Y-107963849D01*
X140648132Y-107954670D01*
X140629719Y-107943634D01*
X140612476Y-107930846D01*
X140596570Y-107916430D01*
X140582154Y-107900524D01*
X140569366Y-107883281D01*
X140558330Y-107864868D01*
X140549151Y-107845462D01*
X140541919Y-107825250D01*
X140536703Y-107804426D01*
X140533553Y-107783191D01*
X140532500Y-107761750D01*
X140532500Y-107249250D01*
X140533553Y-107227809D01*
X140536703Y-107206574D01*
X140541919Y-107185750D01*
X140549151Y-107165538D01*
X140558330Y-107146132D01*
X140569366Y-107127719D01*
X140582154Y-107110476D01*
X140596570Y-107094570D01*
X140612476Y-107080154D01*
X140629719Y-107067366D01*
X140648132Y-107056330D01*
X140667538Y-107047151D01*
X140687750Y-107039919D01*
X140708574Y-107034703D01*
X140729809Y-107031553D01*
X140751250Y-107030500D01*
X141188750Y-107030500D01*
X141210191Y-107031553D01*
X141210191Y-107031553D01*
G37*
D13*
X140970000Y-107505500D03*
D16*
X129300500Y-92710000D03*
X132700500Y-92710000D03*
D12*
G36*
X135977691Y-108746053D02*
X135998926Y-108749203D01*
X136019750Y-108754419D01*
X136039962Y-108761651D01*
X136059368Y-108770830D01*
X136077781Y-108781866D01*
X136095024Y-108794654D01*
X136110930Y-108809070D01*
X136125346Y-108824976D01*
X136138134Y-108842219D01*
X136149170Y-108860632D01*
X136158349Y-108880038D01*
X136165581Y-108900250D01*
X136170797Y-108921074D01*
X136173947Y-108942309D01*
X136175000Y-108963750D01*
X136175000Y-109476250D01*
X136173947Y-109497691D01*
X136170797Y-109518926D01*
X136165581Y-109539750D01*
X136158349Y-109559962D01*
X136149170Y-109579368D01*
X136138134Y-109597781D01*
X136125346Y-109615024D01*
X136110930Y-109630930D01*
X136095024Y-109645346D01*
X136077781Y-109658134D01*
X136059368Y-109669170D01*
X136039962Y-109678349D01*
X136019750Y-109685581D01*
X135998926Y-109690797D01*
X135977691Y-109693947D01*
X135956250Y-109695000D01*
X135518750Y-109695000D01*
X135497309Y-109693947D01*
X135476074Y-109690797D01*
X135455250Y-109685581D01*
X135435038Y-109678349D01*
X135415632Y-109669170D01*
X135397219Y-109658134D01*
X135379976Y-109645346D01*
X135364070Y-109630930D01*
X135349654Y-109615024D01*
X135336866Y-109597781D01*
X135325830Y-109579368D01*
X135316651Y-109559962D01*
X135309419Y-109539750D01*
X135304203Y-109518926D01*
X135301053Y-109497691D01*
X135300000Y-109476250D01*
X135300000Y-108963750D01*
X135301053Y-108942309D01*
X135304203Y-108921074D01*
X135309419Y-108900250D01*
X135316651Y-108880038D01*
X135325830Y-108860632D01*
X135336866Y-108842219D01*
X135349654Y-108824976D01*
X135364070Y-108809070D01*
X135379976Y-108794654D01*
X135397219Y-108781866D01*
X135415632Y-108770830D01*
X135435038Y-108761651D01*
X135455250Y-108754419D01*
X135476074Y-108749203D01*
X135497309Y-108746053D01*
X135518750Y-108745000D01*
X135956250Y-108745000D01*
X135977691Y-108746053D01*
X135977691Y-108746053D01*
G37*
D13*
X135737500Y-109220000D03*
D12*
G36*
X137552691Y-108746053D02*
X137573926Y-108749203D01*
X137594750Y-108754419D01*
X137614962Y-108761651D01*
X137634368Y-108770830D01*
X137652781Y-108781866D01*
X137670024Y-108794654D01*
X137685930Y-108809070D01*
X137700346Y-108824976D01*
X137713134Y-108842219D01*
X137724170Y-108860632D01*
X137733349Y-108880038D01*
X137740581Y-108900250D01*
X137745797Y-108921074D01*
X137748947Y-108942309D01*
X137750000Y-108963750D01*
X137750000Y-109476250D01*
X137748947Y-109497691D01*
X137745797Y-109518926D01*
X137740581Y-109539750D01*
X137733349Y-109559962D01*
X137724170Y-109579368D01*
X137713134Y-109597781D01*
X137700346Y-109615024D01*
X137685930Y-109630930D01*
X137670024Y-109645346D01*
X137652781Y-109658134D01*
X137634368Y-109669170D01*
X137614962Y-109678349D01*
X137594750Y-109685581D01*
X137573926Y-109690797D01*
X137552691Y-109693947D01*
X137531250Y-109695000D01*
X137093750Y-109695000D01*
X137072309Y-109693947D01*
X137051074Y-109690797D01*
X137030250Y-109685581D01*
X137010038Y-109678349D01*
X136990632Y-109669170D01*
X136972219Y-109658134D01*
X136954976Y-109645346D01*
X136939070Y-109630930D01*
X136924654Y-109615024D01*
X136911866Y-109597781D01*
X136900830Y-109579368D01*
X136891651Y-109559962D01*
X136884419Y-109539750D01*
X136879203Y-109518926D01*
X136876053Y-109497691D01*
X136875000Y-109476250D01*
X136875000Y-108963750D01*
X136876053Y-108942309D01*
X136879203Y-108921074D01*
X136884419Y-108900250D01*
X136891651Y-108880038D01*
X136900830Y-108860632D01*
X136911866Y-108842219D01*
X136924654Y-108824976D01*
X136939070Y-108809070D01*
X136954976Y-108794654D01*
X136972219Y-108781866D01*
X136990632Y-108770830D01*
X137010038Y-108761651D01*
X137030250Y-108754419D01*
X137051074Y-108749203D01*
X137072309Y-108746053D01*
X137093750Y-108745000D01*
X137531250Y-108745000D01*
X137552691Y-108746053D01*
X137552691Y-108746053D01*
G37*
D13*
X137312500Y-109220000D03*
D12*
G36*
X135977691Y-106968053D02*
X135998926Y-106971203D01*
X136019750Y-106976419D01*
X136039962Y-106983651D01*
X136059368Y-106992830D01*
X136077781Y-107003866D01*
X136095024Y-107016654D01*
X136110930Y-107031070D01*
X136125346Y-107046976D01*
X136138134Y-107064219D01*
X136149170Y-107082632D01*
X136158349Y-107102038D01*
X136165581Y-107122250D01*
X136170797Y-107143074D01*
X136173947Y-107164309D01*
X136175000Y-107185750D01*
X136175000Y-107698250D01*
X136173947Y-107719691D01*
X136170797Y-107740926D01*
X136165581Y-107761750D01*
X136158349Y-107781962D01*
X136149170Y-107801368D01*
X136138134Y-107819781D01*
X136125346Y-107837024D01*
X136110930Y-107852930D01*
X136095024Y-107867346D01*
X136077781Y-107880134D01*
X136059368Y-107891170D01*
X136039962Y-107900349D01*
X136019750Y-107907581D01*
X135998926Y-107912797D01*
X135977691Y-107915947D01*
X135956250Y-107917000D01*
X135518750Y-107917000D01*
X135497309Y-107915947D01*
X135476074Y-107912797D01*
X135455250Y-107907581D01*
X135435038Y-107900349D01*
X135415632Y-107891170D01*
X135397219Y-107880134D01*
X135379976Y-107867346D01*
X135364070Y-107852930D01*
X135349654Y-107837024D01*
X135336866Y-107819781D01*
X135325830Y-107801368D01*
X135316651Y-107781962D01*
X135309419Y-107761750D01*
X135304203Y-107740926D01*
X135301053Y-107719691D01*
X135300000Y-107698250D01*
X135300000Y-107185750D01*
X135301053Y-107164309D01*
X135304203Y-107143074D01*
X135309419Y-107122250D01*
X135316651Y-107102038D01*
X135325830Y-107082632D01*
X135336866Y-107064219D01*
X135349654Y-107046976D01*
X135364070Y-107031070D01*
X135379976Y-107016654D01*
X135397219Y-107003866D01*
X135415632Y-106992830D01*
X135435038Y-106983651D01*
X135455250Y-106976419D01*
X135476074Y-106971203D01*
X135497309Y-106968053D01*
X135518750Y-106967000D01*
X135956250Y-106967000D01*
X135977691Y-106968053D01*
X135977691Y-106968053D01*
G37*
D13*
X135737500Y-107442000D03*
D12*
G36*
X137552691Y-106968053D02*
X137573926Y-106971203D01*
X137594750Y-106976419D01*
X137614962Y-106983651D01*
X137634368Y-106992830D01*
X137652781Y-107003866D01*
X137670024Y-107016654D01*
X137685930Y-107031070D01*
X137700346Y-107046976D01*
X137713134Y-107064219D01*
X137724170Y-107082632D01*
X137733349Y-107102038D01*
X137740581Y-107122250D01*
X137745797Y-107143074D01*
X137748947Y-107164309D01*
X137750000Y-107185750D01*
X137750000Y-107698250D01*
X137748947Y-107719691D01*
X137745797Y-107740926D01*
X137740581Y-107761750D01*
X137733349Y-107781962D01*
X137724170Y-107801368D01*
X137713134Y-107819781D01*
X137700346Y-107837024D01*
X137685930Y-107852930D01*
X137670024Y-107867346D01*
X137652781Y-107880134D01*
X137634368Y-107891170D01*
X137614962Y-107900349D01*
X137594750Y-107907581D01*
X137573926Y-107912797D01*
X137552691Y-107915947D01*
X137531250Y-107917000D01*
X137093750Y-107917000D01*
X137072309Y-107915947D01*
X137051074Y-107912797D01*
X137030250Y-107907581D01*
X137010038Y-107900349D01*
X136990632Y-107891170D01*
X136972219Y-107880134D01*
X136954976Y-107867346D01*
X136939070Y-107852930D01*
X136924654Y-107837024D01*
X136911866Y-107819781D01*
X136900830Y-107801368D01*
X136891651Y-107781962D01*
X136884419Y-107761750D01*
X136879203Y-107740926D01*
X136876053Y-107719691D01*
X136875000Y-107698250D01*
X136875000Y-107185750D01*
X136876053Y-107164309D01*
X136879203Y-107143074D01*
X136884419Y-107122250D01*
X136891651Y-107102038D01*
X136900830Y-107082632D01*
X136911866Y-107064219D01*
X136924654Y-107046976D01*
X136939070Y-107031070D01*
X136954976Y-107016654D01*
X136972219Y-107003866D01*
X136990632Y-106992830D01*
X137010038Y-106983651D01*
X137030250Y-106976419D01*
X137051074Y-106971203D01*
X137072309Y-106968053D01*
X137093750Y-106967000D01*
X137531250Y-106967000D01*
X137552691Y-106968053D01*
X137552691Y-106968053D01*
G37*
D13*
X137312500Y-107442000D03*
D17*
X131055000Y-95605000D03*
X128905000Y-95605000D03*
X128905000Y-97155000D03*
X131055000Y-97155000D03*
D12*
G36*
X128357691Y-105571053D02*
X128378926Y-105574203D01*
X128399750Y-105579419D01*
X128419962Y-105586651D01*
X128439368Y-105595830D01*
X128457781Y-105606866D01*
X128475024Y-105619654D01*
X128490930Y-105634070D01*
X128505346Y-105649976D01*
X128518134Y-105667219D01*
X128529170Y-105685632D01*
X128538349Y-105705038D01*
X128545581Y-105725250D01*
X128550797Y-105746074D01*
X128553947Y-105767309D01*
X128555000Y-105788750D01*
X128555000Y-106301250D01*
X128553947Y-106322691D01*
X128550797Y-106343926D01*
X128545581Y-106364750D01*
X128538349Y-106384962D01*
X128529170Y-106404368D01*
X128518134Y-106422781D01*
X128505346Y-106440024D01*
X128490930Y-106455930D01*
X128475024Y-106470346D01*
X128457781Y-106483134D01*
X128439368Y-106494170D01*
X128419962Y-106503349D01*
X128399750Y-106510581D01*
X128378926Y-106515797D01*
X128357691Y-106518947D01*
X128336250Y-106520000D01*
X127898750Y-106520000D01*
X127877309Y-106518947D01*
X127856074Y-106515797D01*
X127835250Y-106510581D01*
X127815038Y-106503349D01*
X127795632Y-106494170D01*
X127777219Y-106483134D01*
X127759976Y-106470346D01*
X127744070Y-106455930D01*
X127729654Y-106440024D01*
X127716866Y-106422781D01*
X127705830Y-106404368D01*
X127696651Y-106384962D01*
X127689419Y-106364750D01*
X127684203Y-106343926D01*
X127681053Y-106322691D01*
X127680000Y-106301250D01*
X127680000Y-105788750D01*
X127681053Y-105767309D01*
X127684203Y-105746074D01*
X127689419Y-105725250D01*
X127696651Y-105705038D01*
X127705830Y-105685632D01*
X127716866Y-105667219D01*
X127729654Y-105649976D01*
X127744070Y-105634070D01*
X127759976Y-105619654D01*
X127777219Y-105606866D01*
X127795632Y-105595830D01*
X127815038Y-105586651D01*
X127835250Y-105579419D01*
X127856074Y-105574203D01*
X127877309Y-105571053D01*
X127898750Y-105570000D01*
X128336250Y-105570000D01*
X128357691Y-105571053D01*
X128357691Y-105571053D01*
G37*
D13*
X128117500Y-106045000D03*
D12*
G36*
X129932691Y-105571053D02*
X129953926Y-105574203D01*
X129974750Y-105579419D01*
X129994962Y-105586651D01*
X130014368Y-105595830D01*
X130032781Y-105606866D01*
X130050024Y-105619654D01*
X130065930Y-105634070D01*
X130080346Y-105649976D01*
X130093134Y-105667219D01*
X130104170Y-105685632D01*
X130113349Y-105705038D01*
X130120581Y-105725250D01*
X130125797Y-105746074D01*
X130128947Y-105767309D01*
X130130000Y-105788750D01*
X130130000Y-106301250D01*
X130128947Y-106322691D01*
X130125797Y-106343926D01*
X130120581Y-106364750D01*
X130113349Y-106384962D01*
X130104170Y-106404368D01*
X130093134Y-106422781D01*
X130080346Y-106440024D01*
X130065930Y-106455930D01*
X130050024Y-106470346D01*
X130032781Y-106483134D01*
X130014368Y-106494170D01*
X129994962Y-106503349D01*
X129974750Y-106510581D01*
X129953926Y-106515797D01*
X129932691Y-106518947D01*
X129911250Y-106520000D01*
X129473750Y-106520000D01*
X129452309Y-106518947D01*
X129431074Y-106515797D01*
X129410250Y-106510581D01*
X129390038Y-106503349D01*
X129370632Y-106494170D01*
X129352219Y-106483134D01*
X129334976Y-106470346D01*
X129319070Y-106455930D01*
X129304654Y-106440024D01*
X129291866Y-106422781D01*
X129280830Y-106404368D01*
X129271651Y-106384962D01*
X129264419Y-106364750D01*
X129259203Y-106343926D01*
X129256053Y-106322691D01*
X129255000Y-106301250D01*
X129255000Y-105788750D01*
X129256053Y-105767309D01*
X129259203Y-105746074D01*
X129264419Y-105725250D01*
X129271651Y-105705038D01*
X129280830Y-105685632D01*
X129291866Y-105667219D01*
X129304654Y-105649976D01*
X129319070Y-105634070D01*
X129334976Y-105619654D01*
X129352219Y-105606866D01*
X129370632Y-105595830D01*
X129390038Y-105586651D01*
X129410250Y-105579419D01*
X129431074Y-105574203D01*
X129452309Y-105571053D01*
X129473750Y-105570000D01*
X129911250Y-105570000D01*
X129932691Y-105571053D01*
X129932691Y-105571053D01*
G37*
D13*
X129692500Y-106045000D03*
D12*
G36*
X132992691Y-96718553D02*
X133013926Y-96721703D01*
X133034750Y-96726919D01*
X133054962Y-96734151D01*
X133074368Y-96743330D01*
X133092781Y-96754366D01*
X133110024Y-96767154D01*
X133125930Y-96781570D01*
X133140346Y-96797476D01*
X133153134Y-96814719D01*
X133164170Y-96833132D01*
X133173349Y-96852538D01*
X133180581Y-96872750D01*
X133185797Y-96893574D01*
X133188947Y-96914809D01*
X133190000Y-96936250D01*
X133190000Y-97373750D01*
X133188947Y-97395191D01*
X133185797Y-97416426D01*
X133180581Y-97437250D01*
X133173349Y-97457462D01*
X133164170Y-97476868D01*
X133153134Y-97495281D01*
X133140346Y-97512524D01*
X133125930Y-97528430D01*
X133110024Y-97542846D01*
X133092781Y-97555634D01*
X133074368Y-97566670D01*
X133054962Y-97575849D01*
X133034750Y-97583081D01*
X133013926Y-97588297D01*
X132992691Y-97591447D01*
X132971250Y-97592500D01*
X132458750Y-97592500D01*
X132437309Y-97591447D01*
X132416074Y-97588297D01*
X132395250Y-97583081D01*
X132375038Y-97575849D01*
X132355632Y-97566670D01*
X132337219Y-97555634D01*
X132319976Y-97542846D01*
X132304070Y-97528430D01*
X132289654Y-97512524D01*
X132276866Y-97495281D01*
X132265830Y-97476868D01*
X132256651Y-97457462D01*
X132249419Y-97437250D01*
X132244203Y-97416426D01*
X132241053Y-97395191D01*
X132240000Y-97373750D01*
X132240000Y-96936250D01*
X132241053Y-96914809D01*
X132244203Y-96893574D01*
X132249419Y-96872750D01*
X132256651Y-96852538D01*
X132265830Y-96833132D01*
X132276866Y-96814719D01*
X132289654Y-96797476D01*
X132304070Y-96781570D01*
X132319976Y-96767154D01*
X132337219Y-96754366D01*
X132355632Y-96743330D01*
X132375038Y-96734151D01*
X132395250Y-96726919D01*
X132416074Y-96721703D01*
X132437309Y-96718553D01*
X132458750Y-96717500D01*
X132971250Y-96717500D01*
X132992691Y-96718553D01*
X132992691Y-96718553D01*
G37*
D13*
X132715000Y-97155000D03*
D12*
G36*
X132992691Y-95143553D02*
X133013926Y-95146703D01*
X133034750Y-95151919D01*
X133054962Y-95159151D01*
X133074368Y-95168330D01*
X133092781Y-95179366D01*
X133110024Y-95192154D01*
X133125930Y-95206570D01*
X133140346Y-95222476D01*
X133153134Y-95239719D01*
X133164170Y-95258132D01*
X133173349Y-95277538D01*
X133180581Y-95297750D01*
X133185797Y-95318574D01*
X133188947Y-95339809D01*
X133190000Y-95361250D01*
X133190000Y-95798750D01*
X133188947Y-95820191D01*
X133185797Y-95841426D01*
X133180581Y-95862250D01*
X133173349Y-95882462D01*
X133164170Y-95901868D01*
X133153134Y-95920281D01*
X133140346Y-95937524D01*
X133125930Y-95953430D01*
X133110024Y-95967846D01*
X133092781Y-95980634D01*
X133074368Y-95991670D01*
X133054962Y-96000849D01*
X133034750Y-96008081D01*
X133013926Y-96013297D01*
X132992691Y-96016447D01*
X132971250Y-96017500D01*
X132458750Y-96017500D01*
X132437309Y-96016447D01*
X132416074Y-96013297D01*
X132395250Y-96008081D01*
X132375038Y-96000849D01*
X132355632Y-95991670D01*
X132337219Y-95980634D01*
X132319976Y-95967846D01*
X132304070Y-95953430D01*
X132289654Y-95937524D01*
X132276866Y-95920281D01*
X132265830Y-95901868D01*
X132256651Y-95882462D01*
X132249419Y-95862250D01*
X132244203Y-95841426D01*
X132241053Y-95820191D01*
X132240000Y-95798750D01*
X132240000Y-95361250D01*
X132241053Y-95339809D01*
X132244203Y-95318574D01*
X132249419Y-95297750D01*
X132256651Y-95277538D01*
X132265830Y-95258132D01*
X132276866Y-95239719D01*
X132289654Y-95222476D01*
X132304070Y-95206570D01*
X132319976Y-95192154D01*
X132337219Y-95179366D01*
X132355632Y-95168330D01*
X132375038Y-95159151D01*
X132395250Y-95151919D01*
X132416074Y-95146703D01*
X132437309Y-95143553D01*
X132458750Y-95142500D01*
X132971250Y-95142500D01*
X132992691Y-95143553D01*
X132992691Y-95143553D01*
G37*
D13*
X132715000Y-95580000D03*
D12*
G36*
X136490142Y-92519174D02*
X136513803Y-92522684D01*
X136537007Y-92528496D01*
X136559529Y-92536554D01*
X136581153Y-92546782D01*
X136601670Y-92559079D01*
X136620883Y-92573329D01*
X136638607Y-92589393D01*
X136654671Y-92607117D01*
X136668921Y-92626330D01*
X136681218Y-92646847D01*
X136691446Y-92668471D01*
X136699504Y-92690993D01*
X136705316Y-92714197D01*
X136708826Y-92737858D01*
X136710000Y-92761750D01*
X136710000Y-93674250D01*
X136708826Y-93698142D01*
X136705316Y-93721803D01*
X136699504Y-93745007D01*
X136691446Y-93767529D01*
X136681218Y-93789153D01*
X136668921Y-93809670D01*
X136654671Y-93828883D01*
X136638607Y-93846607D01*
X136620883Y-93862671D01*
X136601670Y-93876921D01*
X136581153Y-93889218D01*
X136559529Y-93899446D01*
X136537007Y-93907504D01*
X136513803Y-93913316D01*
X136490142Y-93916826D01*
X136466250Y-93918000D01*
X135978750Y-93918000D01*
X135954858Y-93916826D01*
X135931197Y-93913316D01*
X135907993Y-93907504D01*
X135885471Y-93899446D01*
X135863847Y-93889218D01*
X135843330Y-93876921D01*
X135824117Y-93862671D01*
X135806393Y-93846607D01*
X135790329Y-93828883D01*
X135776079Y-93809670D01*
X135763782Y-93789153D01*
X135753554Y-93767529D01*
X135745496Y-93745007D01*
X135739684Y-93721803D01*
X135736174Y-93698142D01*
X135735000Y-93674250D01*
X135735000Y-92761750D01*
X135736174Y-92737858D01*
X135739684Y-92714197D01*
X135745496Y-92690993D01*
X135753554Y-92668471D01*
X135763782Y-92646847D01*
X135776079Y-92626330D01*
X135790329Y-92607117D01*
X135806393Y-92589393D01*
X135824117Y-92573329D01*
X135843330Y-92559079D01*
X135863847Y-92546782D01*
X135885471Y-92536554D01*
X135907993Y-92528496D01*
X135931197Y-92522684D01*
X135954858Y-92519174D01*
X135978750Y-92518000D01*
X136466250Y-92518000D01*
X136490142Y-92519174D01*
X136490142Y-92519174D01*
G37*
D18*
X136222500Y-93218000D03*
D12*
G36*
X138365142Y-92519174D02*
X138388803Y-92522684D01*
X138412007Y-92528496D01*
X138434529Y-92536554D01*
X138456153Y-92546782D01*
X138476670Y-92559079D01*
X138495883Y-92573329D01*
X138513607Y-92589393D01*
X138529671Y-92607117D01*
X138543921Y-92626330D01*
X138556218Y-92646847D01*
X138566446Y-92668471D01*
X138574504Y-92690993D01*
X138580316Y-92714197D01*
X138583826Y-92737858D01*
X138585000Y-92761750D01*
X138585000Y-93674250D01*
X138583826Y-93698142D01*
X138580316Y-93721803D01*
X138574504Y-93745007D01*
X138566446Y-93767529D01*
X138556218Y-93789153D01*
X138543921Y-93809670D01*
X138529671Y-93828883D01*
X138513607Y-93846607D01*
X138495883Y-93862671D01*
X138476670Y-93876921D01*
X138456153Y-93889218D01*
X138434529Y-93899446D01*
X138412007Y-93907504D01*
X138388803Y-93913316D01*
X138365142Y-93916826D01*
X138341250Y-93918000D01*
X137853750Y-93918000D01*
X137829858Y-93916826D01*
X137806197Y-93913316D01*
X137782993Y-93907504D01*
X137760471Y-93899446D01*
X137738847Y-93889218D01*
X137718330Y-93876921D01*
X137699117Y-93862671D01*
X137681393Y-93846607D01*
X137665329Y-93828883D01*
X137651079Y-93809670D01*
X137638782Y-93789153D01*
X137628554Y-93767529D01*
X137620496Y-93745007D01*
X137614684Y-93721803D01*
X137611174Y-93698142D01*
X137610000Y-93674250D01*
X137610000Y-92761750D01*
X137611174Y-92737858D01*
X137614684Y-92714197D01*
X137620496Y-92690993D01*
X137628554Y-92668471D01*
X137638782Y-92646847D01*
X137651079Y-92626330D01*
X137665329Y-92607117D01*
X137681393Y-92589393D01*
X137699117Y-92573329D01*
X137718330Y-92559079D01*
X137738847Y-92546782D01*
X137760471Y-92536554D01*
X137782993Y-92528496D01*
X137806197Y-92522684D01*
X137829858Y-92519174D01*
X137853750Y-92518000D01*
X138341250Y-92518000D01*
X138365142Y-92519174D01*
X138365142Y-92519174D01*
G37*
D18*
X138097500Y-93218000D03*
D12*
G36*
X132045142Y-107251174D02*
X132068803Y-107254684D01*
X132092007Y-107260496D01*
X132114529Y-107268554D01*
X132136153Y-107278782D01*
X132156670Y-107291079D01*
X132175883Y-107305329D01*
X132193607Y-107321393D01*
X132209671Y-107339117D01*
X132223921Y-107358330D01*
X132236218Y-107378847D01*
X132246446Y-107400471D01*
X132254504Y-107422993D01*
X132260316Y-107446197D01*
X132263826Y-107469858D01*
X132265000Y-107493750D01*
X132265000Y-108406250D01*
X132263826Y-108430142D01*
X132260316Y-108453803D01*
X132254504Y-108477007D01*
X132246446Y-108499529D01*
X132236218Y-108521153D01*
X132223921Y-108541670D01*
X132209671Y-108560883D01*
X132193607Y-108578607D01*
X132175883Y-108594671D01*
X132156670Y-108608921D01*
X132136153Y-108621218D01*
X132114529Y-108631446D01*
X132092007Y-108639504D01*
X132068803Y-108645316D01*
X132045142Y-108648826D01*
X132021250Y-108650000D01*
X131533750Y-108650000D01*
X131509858Y-108648826D01*
X131486197Y-108645316D01*
X131462993Y-108639504D01*
X131440471Y-108631446D01*
X131418847Y-108621218D01*
X131398330Y-108608921D01*
X131379117Y-108594671D01*
X131361393Y-108578607D01*
X131345329Y-108560883D01*
X131331079Y-108541670D01*
X131318782Y-108521153D01*
X131308554Y-108499529D01*
X131300496Y-108477007D01*
X131294684Y-108453803D01*
X131291174Y-108430142D01*
X131290000Y-108406250D01*
X131290000Y-107493750D01*
X131291174Y-107469858D01*
X131294684Y-107446197D01*
X131300496Y-107422993D01*
X131308554Y-107400471D01*
X131318782Y-107378847D01*
X131331079Y-107358330D01*
X131345329Y-107339117D01*
X131361393Y-107321393D01*
X131379117Y-107305329D01*
X131398330Y-107291079D01*
X131418847Y-107278782D01*
X131440471Y-107268554D01*
X131462993Y-107260496D01*
X131486197Y-107254684D01*
X131509858Y-107251174D01*
X131533750Y-107250000D01*
X132021250Y-107250000D01*
X132045142Y-107251174D01*
X132045142Y-107251174D01*
G37*
D18*
X131777500Y-107950000D03*
D12*
G36*
X133920142Y-107251174D02*
X133943803Y-107254684D01*
X133967007Y-107260496D01*
X133989529Y-107268554D01*
X134011153Y-107278782D01*
X134031670Y-107291079D01*
X134050883Y-107305329D01*
X134068607Y-107321393D01*
X134084671Y-107339117D01*
X134098921Y-107358330D01*
X134111218Y-107378847D01*
X134121446Y-107400471D01*
X134129504Y-107422993D01*
X134135316Y-107446197D01*
X134138826Y-107469858D01*
X134140000Y-107493750D01*
X134140000Y-108406250D01*
X134138826Y-108430142D01*
X134135316Y-108453803D01*
X134129504Y-108477007D01*
X134121446Y-108499529D01*
X134111218Y-108521153D01*
X134098921Y-108541670D01*
X134084671Y-108560883D01*
X134068607Y-108578607D01*
X134050883Y-108594671D01*
X134031670Y-108608921D01*
X134011153Y-108621218D01*
X133989529Y-108631446D01*
X133967007Y-108639504D01*
X133943803Y-108645316D01*
X133920142Y-108648826D01*
X133896250Y-108650000D01*
X133408750Y-108650000D01*
X133384858Y-108648826D01*
X133361197Y-108645316D01*
X133337993Y-108639504D01*
X133315471Y-108631446D01*
X133293847Y-108621218D01*
X133273330Y-108608921D01*
X133254117Y-108594671D01*
X133236393Y-108578607D01*
X133220329Y-108560883D01*
X133206079Y-108541670D01*
X133193782Y-108521153D01*
X133183554Y-108499529D01*
X133175496Y-108477007D01*
X133169684Y-108453803D01*
X133166174Y-108430142D01*
X133165000Y-108406250D01*
X133165000Y-107493750D01*
X133166174Y-107469858D01*
X133169684Y-107446197D01*
X133175496Y-107422993D01*
X133183554Y-107400471D01*
X133193782Y-107378847D01*
X133206079Y-107358330D01*
X133220329Y-107339117D01*
X133236393Y-107321393D01*
X133254117Y-107305329D01*
X133273330Y-107291079D01*
X133293847Y-107278782D01*
X133315471Y-107268554D01*
X133337993Y-107260496D01*
X133361197Y-107254684D01*
X133384858Y-107251174D01*
X133408750Y-107250000D01*
X133896250Y-107250000D01*
X133920142Y-107251174D01*
X133920142Y-107251174D01*
G37*
D18*
X133652500Y-107950000D03*
D12*
G36*
X127277691Y-93505553D02*
X127298926Y-93508703D01*
X127319750Y-93513919D01*
X127339962Y-93521151D01*
X127359368Y-93530330D01*
X127377781Y-93541366D01*
X127395024Y-93554154D01*
X127410930Y-93568570D01*
X127425346Y-93584476D01*
X127438134Y-93601719D01*
X127449170Y-93620132D01*
X127458349Y-93639538D01*
X127465581Y-93659750D01*
X127470797Y-93680574D01*
X127473947Y-93701809D01*
X127475000Y-93723250D01*
X127475000Y-94160750D01*
X127473947Y-94182191D01*
X127470797Y-94203426D01*
X127465581Y-94224250D01*
X127458349Y-94244462D01*
X127449170Y-94263868D01*
X127438134Y-94282281D01*
X127425346Y-94299524D01*
X127410930Y-94315430D01*
X127395024Y-94329846D01*
X127377781Y-94342634D01*
X127359368Y-94353670D01*
X127339962Y-94362849D01*
X127319750Y-94370081D01*
X127298926Y-94375297D01*
X127277691Y-94378447D01*
X127256250Y-94379500D01*
X126743750Y-94379500D01*
X126722309Y-94378447D01*
X126701074Y-94375297D01*
X126680250Y-94370081D01*
X126660038Y-94362849D01*
X126640632Y-94353670D01*
X126622219Y-94342634D01*
X126604976Y-94329846D01*
X126589070Y-94315430D01*
X126574654Y-94299524D01*
X126561866Y-94282281D01*
X126550830Y-94263868D01*
X126541651Y-94244462D01*
X126534419Y-94224250D01*
X126529203Y-94203426D01*
X126526053Y-94182191D01*
X126525000Y-94160750D01*
X126525000Y-93723250D01*
X126526053Y-93701809D01*
X126529203Y-93680574D01*
X126534419Y-93659750D01*
X126541651Y-93639538D01*
X126550830Y-93620132D01*
X126561866Y-93601719D01*
X126574654Y-93584476D01*
X126589070Y-93568570D01*
X126604976Y-93554154D01*
X126622219Y-93541366D01*
X126640632Y-93530330D01*
X126660038Y-93521151D01*
X126680250Y-93513919D01*
X126701074Y-93508703D01*
X126722309Y-93505553D01*
X126743750Y-93504500D01*
X127256250Y-93504500D01*
X127277691Y-93505553D01*
X127277691Y-93505553D01*
G37*
D13*
X127000000Y-93942000D03*
D12*
G36*
X127277691Y-91930553D02*
X127298926Y-91933703D01*
X127319750Y-91938919D01*
X127339962Y-91946151D01*
X127359368Y-91955330D01*
X127377781Y-91966366D01*
X127395024Y-91979154D01*
X127410930Y-91993570D01*
X127425346Y-92009476D01*
X127438134Y-92026719D01*
X127449170Y-92045132D01*
X127458349Y-92064538D01*
X127465581Y-92084750D01*
X127470797Y-92105574D01*
X127473947Y-92126809D01*
X127475000Y-92148250D01*
X127475000Y-92585750D01*
X127473947Y-92607191D01*
X127470797Y-92628426D01*
X127465581Y-92649250D01*
X127458349Y-92669462D01*
X127449170Y-92688868D01*
X127438134Y-92707281D01*
X127425346Y-92724524D01*
X127410930Y-92740430D01*
X127395024Y-92754846D01*
X127377781Y-92767634D01*
X127359368Y-92778670D01*
X127339962Y-92787849D01*
X127319750Y-92795081D01*
X127298926Y-92800297D01*
X127277691Y-92803447D01*
X127256250Y-92804500D01*
X126743750Y-92804500D01*
X126722309Y-92803447D01*
X126701074Y-92800297D01*
X126680250Y-92795081D01*
X126660038Y-92787849D01*
X126640632Y-92778670D01*
X126622219Y-92767634D01*
X126604976Y-92754846D01*
X126589070Y-92740430D01*
X126574654Y-92724524D01*
X126561866Y-92707281D01*
X126550830Y-92688868D01*
X126541651Y-92669462D01*
X126534419Y-92649250D01*
X126529203Y-92628426D01*
X126526053Y-92607191D01*
X126525000Y-92585750D01*
X126525000Y-92148250D01*
X126526053Y-92126809D01*
X126529203Y-92105574D01*
X126534419Y-92084750D01*
X126541651Y-92064538D01*
X126550830Y-92045132D01*
X126561866Y-92026719D01*
X126574654Y-92009476D01*
X126589070Y-91993570D01*
X126604976Y-91979154D01*
X126622219Y-91966366D01*
X126640632Y-91955330D01*
X126660038Y-91946151D01*
X126680250Y-91938919D01*
X126701074Y-91933703D01*
X126722309Y-91930553D01*
X126743750Y-91929500D01*
X127256250Y-91929500D01*
X127277691Y-91930553D01*
X127277691Y-91930553D01*
G37*
D13*
X127000000Y-92367000D03*
D12*
G36*
X132167691Y-105571053D02*
X132188926Y-105574203D01*
X132209750Y-105579419D01*
X132229962Y-105586651D01*
X132249368Y-105595830D01*
X132267781Y-105606866D01*
X132285024Y-105619654D01*
X132300930Y-105634070D01*
X132315346Y-105649976D01*
X132328134Y-105667219D01*
X132339170Y-105685632D01*
X132348349Y-105705038D01*
X132355581Y-105725250D01*
X132360797Y-105746074D01*
X132363947Y-105767309D01*
X132365000Y-105788750D01*
X132365000Y-106301250D01*
X132363947Y-106322691D01*
X132360797Y-106343926D01*
X132355581Y-106364750D01*
X132348349Y-106384962D01*
X132339170Y-106404368D01*
X132328134Y-106422781D01*
X132315346Y-106440024D01*
X132300930Y-106455930D01*
X132285024Y-106470346D01*
X132267781Y-106483134D01*
X132249368Y-106494170D01*
X132229962Y-106503349D01*
X132209750Y-106510581D01*
X132188926Y-106515797D01*
X132167691Y-106518947D01*
X132146250Y-106520000D01*
X131708750Y-106520000D01*
X131687309Y-106518947D01*
X131666074Y-106515797D01*
X131645250Y-106510581D01*
X131625038Y-106503349D01*
X131605632Y-106494170D01*
X131587219Y-106483134D01*
X131569976Y-106470346D01*
X131554070Y-106455930D01*
X131539654Y-106440024D01*
X131526866Y-106422781D01*
X131515830Y-106404368D01*
X131506651Y-106384962D01*
X131499419Y-106364750D01*
X131494203Y-106343926D01*
X131491053Y-106322691D01*
X131490000Y-106301250D01*
X131490000Y-105788750D01*
X131491053Y-105767309D01*
X131494203Y-105746074D01*
X131499419Y-105725250D01*
X131506651Y-105705038D01*
X131515830Y-105685632D01*
X131526866Y-105667219D01*
X131539654Y-105649976D01*
X131554070Y-105634070D01*
X131569976Y-105619654D01*
X131587219Y-105606866D01*
X131605632Y-105595830D01*
X131625038Y-105586651D01*
X131645250Y-105579419D01*
X131666074Y-105574203D01*
X131687309Y-105571053D01*
X131708750Y-105570000D01*
X132146250Y-105570000D01*
X132167691Y-105571053D01*
X132167691Y-105571053D01*
G37*
D13*
X131927500Y-106045000D03*
D12*
G36*
X133742691Y-105571053D02*
X133763926Y-105574203D01*
X133784750Y-105579419D01*
X133804962Y-105586651D01*
X133824368Y-105595830D01*
X133842781Y-105606866D01*
X133860024Y-105619654D01*
X133875930Y-105634070D01*
X133890346Y-105649976D01*
X133903134Y-105667219D01*
X133914170Y-105685632D01*
X133923349Y-105705038D01*
X133930581Y-105725250D01*
X133935797Y-105746074D01*
X133938947Y-105767309D01*
X133940000Y-105788750D01*
X133940000Y-106301250D01*
X133938947Y-106322691D01*
X133935797Y-106343926D01*
X133930581Y-106364750D01*
X133923349Y-106384962D01*
X133914170Y-106404368D01*
X133903134Y-106422781D01*
X133890346Y-106440024D01*
X133875930Y-106455930D01*
X133860024Y-106470346D01*
X133842781Y-106483134D01*
X133824368Y-106494170D01*
X133804962Y-106503349D01*
X133784750Y-106510581D01*
X133763926Y-106515797D01*
X133742691Y-106518947D01*
X133721250Y-106520000D01*
X133283750Y-106520000D01*
X133262309Y-106518947D01*
X133241074Y-106515797D01*
X133220250Y-106510581D01*
X133200038Y-106503349D01*
X133180632Y-106494170D01*
X133162219Y-106483134D01*
X133144976Y-106470346D01*
X133129070Y-106455930D01*
X133114654Y-106440024D01*
X133101866Y-106422781D01*
X133090830Y-106404368D01*
X133081651Y-106384962D01*
X133074419Y-106364750D01*
X133069203Y-106343926D01*
X133066053Y-106322691D01*
X133065000Y-106301250D01*
X133065000Y-105788750D01*
X133066053Y-105767309D01*
X133069203Y-105746074D01*
X133074419Y-105725250D01*
X133081651Y-105705038D01*
X133090830Y-105685632D01*
X133101866Y-105667219D01*
X133114654Y-105649976D01*
X133129070Y-105634070D01*
X133144976Y-105619654D01*
X133162219Y-105606866D01*
X133180632Y-105595830D01*
X133200038Y-105586651D01*
X133220250Y-105579419D01*
X133241074Y-105574203D01*
X133262309Y-105571053D01*
X133283750Y-105570000D01*
X133721250Y-105570000D01*
X133742691Y-105571053D01*
X133742691Y-105571053D01*
G37*
D13*
X133502500Y-106045000D03*
D12*
G36*
X130110142Y-107251174D02*
X130133803Y-107254684D01*
X130157007Y-107260496D01*
X130179529Y-107268554D01*
X130201153Y-107278782D01*
X130221670Y-107291079D01*
X130240883Y-107305329D01*
X130258607Y-107321393D01*
X130274671Y-107339117D01*
X130288921Y-107358330D01*
X130301218Y-107378847D01*
X130311446Y-107400471D01*
X130319504Y-107422993D01*
X130325316Y-107446197D01*
X130328826Y-107469858D01*
X130330000Y-107493750D01*
X130330000Y-108406250D01*
X130328826Y-108430142D01*
X130325316Y-108453803D01*
X130319504Y-108477007D01*
X130311446Y-108499529D01*
X130301218Y-108521153D01*
X130288921Y-108541670D01*
X130274671Y-108560883D01*
X130258607Y-108578607D01*
X130240883Y-108594671D01*
X130221670Y-108608921D01*
X130201153Y-108621218D01*
X130179529Y-108631446D01*
X130157007Y-108639504D01*
X130133803Y-108645316D01*
X130110142Y-108648826D01*
X130086250Y-108650000D01*
X129598750Y-108650000D01*
X129574858Y-108648826D01*
X129551197Y-108645316D01*
X129527993Y-108639504D01*
X129505471Y-108631446D01*
X129483847Y-108621218D01*
X129463330Y-108608921D01*
X129444117Y-108594671D01*
X129426393Y-108578607D01*
X129410329Y-108560883D01*
X129396079Y-108541670D01*
X129383782Y-108521153D01*
X129373554Y-108499529D01*
X129365496Y-108477007D01*
X129359684Y-108453803D01*
X129356174Y-108430142D01*
X129355000Y-108406250D01*
X129355000Y-107493750D01*
X129356174Y-107469858D01*
X129359684Y-107446197D01*
X129365496Y-107422993D01*
X129373554Y-107400471D01*
X129383782Y-107378847D01*
X129396079Y-107358330D01*
X129410329Y-107339117D01*
X129426393Y-107321393D01*
X129444117Y-107305329D01*
X129463330Y-107291079D01*
X129483847Y-107278782D01*
X129505471Y-107268554D01*
X129527993Y-107260496D01*
X129551197Y-107254684D01*
X129574858Y-107251174D01*
X129598750Y-107250000D01*
X130086250Y-107250000D01*
X130110142Y-107251174D01*
X130110142Y-107251174D01*
G37*
D18*
X129842500Y-107950000D03*
D12*
G36*
X128235142Y-107251174D02*
X128258803Y-107254684D01*
X128282007Y-107260496D01*
X128304529Y-107268554D01*
X128326153Y-107278782D01*
X128346670Y-107291079D01*
X128365883Y-107305329D01*
X128383607Y-107321393D01*
X128399671Y-107339117D01*
X128413921Y-107358330D01*
X128426218Y-107378847D01*
X128436446Y-107400471D01*
X128444504Y-107422993D01*
X128450316Y-107446197D01*
X128453826Y-107469858D01*
X128455000Y-107493750D01*
X128455000Y-108406250D01*
X128453826Y-108430142D01*
X128450316Y-108453803D01*
X128444504Y-108477007D01*
X128436446Y-108499529D01*
X128426218Y-108521153D01*
X128413921Y-108541670D01*
X128399671Y-108560883D01*
X128383607Y-108578607D01*
X128365883Y-108594671D01*
X128346670Y-108608921D01*
X128326153Y-108621218D01*
X128304529Y-108631446D01*
X128282007Y-108639504D01*
X128258803Y-108645316D01*
X128235142Y-108648826D01*
X128211250Y-108650000D01*
X127723750Y-108650000D01*
X127699858Y-108648826D01*
X127676197Y-108645316D01*
X127652993Y-108639504D01*
X127630471Y-108631446D01*
X127608847Y-108621218D01*
X127588330Y-108608921D01*
X127569117Y-108594671D01*
X127551393Y-108578607D01*
X127535329Y-108560883D01*
X127521079Y-108541670D01*
X127508782Y-108521153D01*
X127498554Y-108499529D01*
X127490496Y-108477007D01*
X127484684Y-108453803D01*
X127481174Y-108430142D01*
X127480000Y-108406250D01*
X127480000Y-107493750D01*
X127481174Y-107469858D01*
X127484684Y-107446197D01*
X127490496Y-107422993D01*
X127498554Y-107400471D01*
X127508782Y-107378847D01*
X127521079Y-107358330D01*
X127535329Y-107339117D01*
X127551393Y-107321393D01*
X127569117Y-107305329D01*
X127588330Y-107291079D01*
X127608847Y-107278782D01*
X127630471Y-107268554D01*
X127652993Y-107260496D01*
X127676197Y-107254684D01*
X127699858Y-107251174D01*
X127723750Y-107250000D01*
X128211250Y-107250000D01*
X128235142Y-107251174D01*
X128235142Y-107251174D01*
G37*
D18*
X127967500Y-107950000D03*
D11*
X129540000Y-88900000D03*
D10*
X129540000Y-86360000D03*
D12*
G36*
X127468191Y-95169053D02*
X127489426Y-95172203D01*
X127510250Y-95177419D01*
X127530462Y-95184651D01*
X127549868Y-95193830D01*
X127568281Y-95204866D01*
X127585524Y-95217654D01*
X127601430Y-95232070D01*
X127615846Y-95247976D01*
X127628634Y-95265219D01*
X127639670Y-95283632D01*
X127648849Y-95303038D01*
X127656081Y-95323250D01*
X127661297Y-95344074D01*
X127664447Y-95365309D01*
X127665500Y-95386750D01*
X127665500Y-95824250D01*
X127664447Y-95845691D01*
X127661297Y-95866926D01*
X127656081Y-95887750D01*
X127648849Y-95907962D01*
X127639670Y-95927368D01*
X127628634Y-95945781D01*
X127615846Y-95963024D01*
X127601430Y-95978930D01*
X127585524Y-95993346D01*
X127568281Y-96006134D01*
X127549868Y-96017170D01*
X127530462Y-96026349D01*
X127510250Y-96033581D01*
X127489426Y-96038797D01*
X127468191Y-96041947D01*
X127446750Y-96043000D01*
X126934250Y-96043000D01*
X126912809Y-96041947D01*
X126891574Y-96038797D01*
X126870750Y-96033581D01*
X126850538Y-96026349D01*
X126831132Y-96017170D01*
X126812719Y-96006134D01*
X126795476Y-95993346D01*
X126779570Y-95978930D01*
X126765154Y-95963024D01*
X126752366Y-95945781D01*
X126741330Y-95927368D01*
X126732151Y-95907962D01*
X126724919Y-95887750D01*
X126719703Y-95866926D01*
X126716553Y-95845691D01*
X126715500Y-95824250D01*
X126715500Y-95386750D01*
X126716553Y-95365309D01*
X126719703Y-95344074D01*
X126724919Y-95323250D01*
X126732151Y-95303038D01*
X126741330Y-95283632D01*
X126752366Y-95265219D01*
X126765154Y-95247976D01*
X126779570Y-95232070D01*
X126795476Y-95217654D01*
X126812719Y-95204866D01*
X126831132Y-95193830D01*
X126850538Y-95184651D01*
X126870750Y-95177419D01*
X126891574Y-95172203D01*
X126912809Y-95169053D01*
X126934250Y-95168000D01*
X127446750Y-95168000D01*
X127468191Y-95169053D01*
X127468191Y-95169053D01*
G37*
D13*
X127190500Y-95605500D03*
D12*
G36*
X127468191Y-96744053D02*
X127489426Y-96747203D01*
X127510250Y-96752419D01*
X127530462Y-96759651D01*
X127549868Y-96768830D01*
X127568281Y-96779866D01*
X127585524Y-96792654D01*
X127601430Y-96807070D01*
X127615846Y-96822976D01*
X127628634Y-96840219D01*
X127639670Y-96858632D01*
X127648849Y-96878038D01*
X127656081Y-96898250D01*
X127661297Y-96919074D01*
X127664447Y-96940309D01*
X127665500Y-96961750D01*
X127665500Y-97399250D01*
X127664447Y-97420691D01*
X127661297Y-97441926D01*
X127656081Y-97462750D01*
X127648849Y-97482962D01*
X127639670Y-97502368D01*
X127628634Y-97520781D01*
X127615846Y-97538024D01*
X127601430Y-97553930D01*
X127585524Y-97568346D01*
X127568281Y-97581134D01*
X127549868Y-97592170D01*
X127530462Y-97601349D01*
X127510250Y-97608581D01*
X127489426Y-97613797D01*
X127468191Y-97616947D01*
X127446750Y-97618000D01*
X126934250Y-97618000D01*
X126912809Y-97616947D01*
X126891574Y-97613797D01*
X126870750Y-97608581D01*
X126850538Y-97601349D01*
X126831132Y-97592170D01*
X126812719Y-97581134D01*
X126795476Y-97568346D01*
X126779570Y-97553930D01*
X126765154Y-97538024D01*
X126752366Y-97520781D01*
X126741330Y-97502368D01*
X126732151Y-97482962D01*
X126724919Y-97462750D01*
X126719703Y-97441926D01*
X126716553Y-97420691D01*
X126715500Y-97399250D01*
X126715500Y-96961750D01*
X126716553Y-96940309D01*
X126719703Y-96919074D01*
X126724919Y-96898250D01*
X126732151Y-96878038D01*
X126741330Y-96858632D01*
X126752366Y-96840219D01*
X126765154Y-96822976D01*
X126779570Y-96807070D01*
X126795476Y-96792654D01*
X126812719Y-96779866D01*
X126831132Y-96768830D01*
X126850538Y-96759651D01*
X126870750Y-96752419D01*
X126891574Y-96747203D01*
X126912809Y-96744053D01*
X126934250Y-96743000D01*
X127446750Y-96743000D01*
X127468191Y-96744053D01*
X127468191Y-96744053D01*
G37*
D13*
X127190500Y-97180500D03*
D12*
G36*
X127277691Y-88882553D02*
X127298926Y-88885703D01*
X127319750Y-88890919D01*
X127339962Y-88898151D01*
X127359368Y-88907330D01*
X127377781Y-88918366D01*
X127395024Y-88931154D01*
X127410930Y-88945570D01*
X127425346Y-88961476D01*
X127438134Y-88978719D01*
X127449170Y-88997132D01*
X127458349Y-89016538D01*
X127465581Y-89036750D01*
X127470797Y-89057574D01*
X127473947Y-89078809D01*
X127475000Y-89100250D01*
X127475000Y-89537750D01*
X127473947Y-89559191D01*
X127470797Y-89580426D01*
X127465581Y-89601250D01*
X127458349Y-89621462D01*
X127449170Y-89640868D01*
X127438134Y-89659281D01*
X127425346Y-89676524D01*
X127410930Y-89692430D01*
X127395024Y-89706846D01*
X127377781Y-89719634D01*
X127359368Y-89730670D01*
X127339962Y-89739849D01*
X127319750Y-89747081D01*
X127298926Y-89752297D01*
X127277691Y-89755447D01*
X127256250Y-89756500D01*
X126743750Y-89756500D01*
X126722309Y-89755447D01*
X126701074Y-89752297D01*
X126680250Y-89747081D01*
X126660038Y-89739849D01*
X126640632Y-89730670D01*
X126622219Y-89719634D01*
X126604976Y-89706846D01*
X126589070Y-89692430D01*
X126574654Y-89676524D01*
X126561866Y-89659281D01*
X126550830Y-89640868D01*
X126541651Y-89621462D01*
X126534419Y-89601250D01*
X126529203Y-89580426D01*
X126526053Y-89559191D01*
X126525000Y-89537750D01*
X126525000Y-89100250D01*
X126526053Y-89078809D01*
X126529203Y-89057574D01*
X126534419Y-89036750D01*
X126541651Y-89016538D01*
X126550830Y-88997132D01*
X126561866Y-88978719D01*
X126574654Y-88961476D01*
X126589070Y-88945570D01*
X126604976Y-88931154D01*
X126622219Y-88918366D01*
X126640632Y-88907330D01*
X126660038Y-88898151D01*
X126680250Y-88890919D01*
X126701074Y-88885703D01*
X126722309Y-88882553D01*
X126743750Y-88881500D01*
X127256250Y-88881500D01*
X127277691Y-88882553D01*
X127277691Y-88882553D01*
G37*
D13*
X127000000Y-89319000D03*
D12*
G36*
X127277691Y-90457553D02*
X127298926Y-90460703D01*
X127319750Y-90465919D01*
X127339962Y-90473151D01*
X127359368Y-90482330D01*
X127377781Y-90493366D01*
X127395024Y-90506154D01*
X127410930Y-90520570D01*
X127425346Y-90536476D01*
X127438134Y-90553719D01*
X127449170Y-90572132D01*
X127458349Y-90591538D01*
X127465581Y-90611750D01*
X127470797Y-90632574D01*
X127473947Y-90653809D01*
X127475000Y-90675250D01*
X127475000Y-91112750D01*
X127473947Y-91134191D01*
X127470797Y-91155426D01*
X127465581Y-91176250D01*
X127458349Y-91196462D01*
X127449170Y-91215868D01*
X127438134Y-91234281D01*
X127425346Y-91251524D01*
X127410930Y-91267430D01*
X127395024Y-91281846D01*
X127377781Y-91294634D01*
X127359368Y-91305670D01*
X127339962Y-91314849D01*
X127319750Y-91322081D01*
X127298926Y-91327297D01*
X127277691Y-91330447D01*
X127256250Y-91331500D01*
X126743750Y-91331500D01*
X126722309Y-91330447D01*
X126701074Y-91327297D01*
X126680250Y-91322081D01*
X126660038Y-91314849D01*
X126640632Y-91305670D01*
X126622219Y-91294634D01*
X126604976Y-91281846D01*
X126589070Y-91267430D01*
X126574654Y-91251524D01*
X126561866Y-91234281D01*
X126550830Y-91215868D01*
X126541651Y-91196462D01*
X126534419Y-91176250D01*
X126529203Y-91155426D01*
X126526053Y-91134191D01*
X126525000Y-91112750D01*
X126525000Y-90675250D01*
X126526053Y-90653809D01*
X126529203Y-90632574D01*
X126534419Y-90611750D01*
X126541651Y-90591538D01*
X126550830Y-90572132D01*
X126561866Y-90553719D01*
X126574654Y-90536476D01*
X126589070Y-90520570D01*
X126604976Y-90506154D01*
X126622219Y-90493366D01*
X126640632Y-90482330D01*
X126660038Y-90473151D01*
X126680250Y-90465919D01*
X126701074Y-90460703D01*
X126722309Y-90457553D01*
X126743750Y-90456500D01*
X127256250Y-90456500D01*
X127277691Y-90457553D01*
X127277691Y-90457553D01*
G37*
D13*
X127000000Y-90894000D03*
D19*
X127860000Y-98675000D03*
X127860000Y-99325000D03*
X127860000Y-99975000D03*
X127860000Y-100625000D03*
X127860000Y-101275000D03*
X127860000Y-101925000D03*
X127860000Y-102575000D03*
X127860000Y-103225000D03*
X127860000Y-103875000D03*
X127860000Y-104525000D03*
X133760000Y-104525000D03*
X133760000Y-103875000D03*
X133760000Y-103225000D03*
X133760000Y-102575000D03*
X133760000Y-101925000D03*
X133760000Y-101275000D03*
X133760000Y-100625000D03*
X133760000Y-99975000D03*
X133760000Y-99325000D03*
X133760000Y-98675000D03*
D20*
X141097000Y-94170500D03*
X142303500Y-94170500D03*
X131960387Y-102162855D03*
X135128000Y-101981000D03*
D21*
X131572000Y-92710000D03*
X132715000Y-94551500D03*
X128905000Y-94551500D03*
X128079500Y-93916500D03*
X127063500Y-106045000D03*
X126873000Y-107950000D03*
X134556500Y-106045000D03*
X138366500Y-108585000D03*
X134683500Y-107188000D03*
X134683500Y-108457996D03*
D20*
X136588500Y-91474010D03*
X138684000Y-91474010D03*
X137668000Y-91474010D03*
X142240000Y-91884500D03*
X142811500Y-102171500D03*
X132461000Y-109855000D03*
D21*
X139382500Y-106553000D03*
D20*
X139382502Y-97218500D03*
X139382500Y-100909044D03*
X142811500Y-103187500D03*
D21*
X128206500Y-92710000D03*
X125920500Y-97345524D03*
X141006756Y-90641238D03*
X135445500Y-95186500D03*
X136207500Y-100838000D03*
X134429500Y-96456500D03*
X135445500Y-99975000D03*
X135364664Y-98904200D03*
X135382000Y-96266004D03*
D22*
X129235000Y-108557500D02*
X129842500Y-107950000D01*
X129235000Y-109855000D02*
X129235000Y-108557500D01*
X129842500Y-106195000D02*
X129692500Y-106045000D01*
X129842500Y-107950000D02*
X129842500Y-106195000D01*
D23*
X127860000Y-101275000D02*
X128985000Y-101275000D01*
X128985000Y-101275000D02*
X130154112Y-102444112D01*
X130154112Y-105583388D02*
X129692500Y-106045000D01*
X130154112Y-102444112D02*
X130154112Y-105583388D01*
D22*
X128205499Y-110910001D02*
X129260500Y-109855000D01*
X124460000Y-111760000D02*
X125309999Y-110910001D01*
X125309999Y-110910001D02*
X128205499Y-110910001D01*
D23*
X133760000Y-101925000D02*
X132263000Y-101925000D01*
X132025145Y-102162855D02*
X131960387Y-102162855D01*
X132263000Y-101925000D02*
X132025145Y-102162855D01*
X133760000Y-101925000D02*
X135072000Y-101925000D01*
X135072000Y-101925000D02*
X135128000Y-101981000D01*
X139700000Y-86360000D02*
X139700000Y-88900000D01*
D22*
X141097000Y-95261000D02*
X141682500Y-95846500D01*
X141097000Y-94170500D02*
X141097000Y-95261000D01*
X142303500Y-95225500D02*
X141682500Y-95846500D01*
X142303500Y-94170500D02*
X142303500Y-95225500D01*
X132700500Y-92710000D02*
X131572000Y-92710000D01*
X132715000Y-95580000D02*
X132715000Y-94551500D01*
X128905000Y-95605000D02*
X128905000Y-94551500D01*
X127000000Y-93942000D02*
X128054000Y-93942000D01*
D23*
X128054000Y-93942000D02*
X128079500Y-93916500D01*
D22*
X127000000Y-95415000D02*
X127190500Y-95605500D01*
X127000000Y-93942000D02*
X127000000Y-95415000D01*
X128117500Y-106045000D02*
X127063500Y-106045000D01*
X127967500Y-107950000D02*
X126873000Y-107950000D01*
X133502500Y-106045000D02*
X134556500Y-106045000D01*
X139395000Y-109220000D02*
X138760000Y-108585000D01*
X138760000Y-108585000D02*
X138366500Y-108585000D01*
X133652500Y-107950000D02*
X134414500Y-107188000D01*
X134414500Y-107188000D02*
X134683500Y-107188000D01*
X134975496Y-108457996D02*
X134683500Y-108457996D01*
X135737500Y-109220000D02*
X134975496Y-108457996D01*
X137668000Y-91474010D02*
X138684000Y-91474010D01*
X139133999Y-91024011D02*
X138684000Y-91474010D01*
X139700000Y-88900000D02*
X139700000Y-90458010D01*
X136222500Y-91840010D02*
X136588500Y-91474010D01*
X136222500Y-93218000D02*
X136222500Y-91840010D01*
X139700000Y-90458010D02*
X139133999Y-91024011D01*
X136588500Y-91474010D02*
X137668000Y-91474010D01*
D23*
X131927500Y-106045000D02*
X131033454Y-105150954D01*
X131033454Y-101831800D02*
X131565255Y-101299999D01*
X131565255Y-101299999D02*
X133586457Y-101299999D01*
X131033454Y-105150954D02*
X131033454Y-101831800D01*
D22*
X131777500Y-106195000D02*
X131927500Y-106045000D01*
X131777500Y-107950000D02*
X131777500Y-106195000D01*
D24*
X139382500Y-93475000D02*
X140211000Y-92646500D01*
X139382500Y-95275000D02*
X139382500Y-93475000D01*
X140211000Y-92646500D02*
X141478000Y-92646500D01*
X142240000Y-91884500D02*
X142240000Y-88900000D01*
X141478000Y-92646500D02*
X142240000Y-91884500D01*
X142240000Y-88900000D02*
X142240000Y-86360000D01*
X142240000Y-88900000D02*
X144780000Y-88900000D01*
D22*
X131055000Y-97155000D02*
X132715000Y-97155000D01*
D23*
X129121000Y-89319000D02*
X129540000Y-88900000D01*
X127000000Y-89319000D02*
X129121000Y-89319000D01*
X131565255Y-99130245D02*
X131565255Y-101299999D01*
X132715000Y-97155000D02*
X132715000Y-97980500D01*
X132715000Y-97980500D02*
X131565255Y-99130245D01*
D24*
X142786500Y-102146500D02*
X142811500Y-102171500D01*
D22*
X130810000Y-109855000D02*
X132461000Y-109855000D01*
X132461000Y-108633500D02*
X131777500Y-107950000D01*
X132461000Y-109855000D02*
X132461000Y-108633500D01*
X139395000Y-107505500D02*
X139395000Y-106565500D01*
X139395000Y-106565500D02*
X139382500Y-106553000D01*
D24*
X139382500Y-102146500D02*
X139382500Y-100909044D01*
X139382502Y-95846502D02*
X139382500Y-95846500D01*
X139382502Y-97218500D02*
X139382502Y-95846502D01*
X142811500Y-102171500D02*
X142811500Y-103187500D01*
X142406896Y-102146500D02*
X142049500Y-102146500D01*
X142811500Y-102551104D02*
X142406896Y-102146500D01*
X142811500Y-103187500D02*
X142811500Y-102551104D01*
X139382500Y-102146500D02*
X142049500Y-102146500D01*
X142049500Y-102146500D02*
X142786500Y-102146500D01*
D23*
X127343000Y-92710000D02*
X127000000Y-92367000D01*
X129300500Y-92710000D02*
X127343000Y-92710000D01*
X127000000Y-90894000D02*
X127000000Y-92367000D01*
X125920500Y-99810500D02*
X125920500Y-97840498D01*
X127860000Y-100625000D02*
X126734999Y-100624999D01*
X126734999Y-100624999D02*
X125920500Y-99810500D01*
X125920500Y-97840498D02*
X125920500Y-97345524D01*
X125896025Y-97369999D02*
X125920500Y-97345524D01*
X124460000Y-96520000D02*
X125309999Y-97369999D01*
X125309999Y-97369999D02*
X125896025Y-97369999D01*
D24*
X137541263Y-93774237D02*
X138097500Y-93218000D01*
X137310010Y-94005490D02*
X137541263Y-93774237D01*
X137310010Y-95618990D02*
X137310010Y-94005490D01*
X137082500Y-95846500D02*
X137310010Y-95618990D01*
D23*
X138097500Y-92710000D02*
X138937994Y-92710000D01*
X140656757Y-90991237D02*
X141006756Y-90641238D01*
X138937994Y-92710000D02*
X140656757Y-90991237D01*
X125920500Y-93980000D02*
X124460000Y-93980000D01*
X125920500Y-95440500D02*
X125920500Y-93980000D01*
X127000000Y-86360000D02*
X129540000Y-86360000D01*
X125920500Y-95440500D02*
X125920500Y-87439500D01*
X125920500Y-87439500D02*
X127000000Y-86360000D01*
X127860000Y-98675000D02*
X127567500Y-98675000D01*
X127190500Y-98298000D02*
X127190500Y-97180500D01*
X127567500Y-98675000D02*
X127190500Y-98298000D01*
X125920500Y-95910500D02*
X125920500Y-95440500D01*
X127190500Y-97180500D02*
X125920500Y-95910500D01*
X129799205Y-97795011D02*
X129159194Y-97155000D01*
X127860000Y-99325000D02*
X128985000Y-99325000D01*
X129799205Y-98510795D02*
X129799205Y-97795011D01*
X129159194Y-97155000D02*
X128905000Y-97155000D01*
X128985000Y-99325000D02*
X129799205Y-98510795D01*
X124460000Y-99650000D02*
X124460000Y-99060000D01*
X126735000Y-101925000D02*
X124460000Y-99650000D01*
X127860000Y-101925000D02*
X126735000Y-101925000D01*
X125435000Y-102575000D02*
X124460000Y-101600000D01*
X127860000Y-102575000D02*
X125435000Y-102575000D01*
X125375000Y-103225000D02*
X124460000Y-104140000D01*
X127860000Y-103225000D02*
X125375000Y-103225000D01*
X124460000Y-106150000D02*
X124460000Y-106680000D01*
X126734999Y-103875001D02*
X124460000Y-106150000D01*
X127860000Y-103875000D02*
X126734999Y-103875001D01*
X125309999Y-108370001D02*
X124460000Y-109220000D01*
X125710001Y-107969999D02*
X125309999Y-108370001D01*
X125710001Y-106174999D02*
X125710001Y-107969999D01*
X127360000Y-104525000D02*
X125710001Y-106174999D01*
X127860000Y-104525000D02*
X127360000Y-104525000D01*
X133760000Y-104525000D02*
X135657414Y-104525000D01*
X136472436Y-105340022D02*
X140900022Y-105340022D01*
X135657414Y-104525000D02*
X136472436Y-105340022D01*
X140900022Y-105340022D02*
X143930001Y-108370001D01*
X143930001Y-108370001D02*
X144780000Y-109220000D01*
X142840011Y-104740011D02*
X143930001Y-105830001D01*
X143930001Y-105830001D02*
X144780000Y-106680000D01*
X136720968Y-104740011D02*
X142840011Y-104740011D01*
X135855958Y-103875001D02*
X136720968Y-104740011D01*
X133760000Y-103875000D02*
X135855958Y-103875001D01*
X144653000Y-104140000D02*
X144716500Y-104203500D01*
X136969500Y-104140000D02*
X144653000Y-104140000D01*
X144716500Y-104203500D02*
X144780000Y-104140000D01*
X134805001Y-103249999D02*
X134829992Y-103274990D01*
X133760000Y-103225000D02*
X133784999Y-103249999D01*
X133784999Y-103249999D02*
X134805001Y-103249999D01*
X134829992Y-103274990D02*
X136104490Y-103274990D01*
X136104490Y-103274990D02*
X136969500Y-104140000D01*
D25*
X132461000Y-104806002D02*
X132461000Y-102849000D01*
X132461000Y-102849000D02*
X132735000Y-102575000D01*
X135737500Y-105892500D02*
X135001000Y-105156000D01*
X132735000Y-102575000D02*
X133760000Y-102575000D01*
X135001000Y-105156000D02*
X132810998Y-105156000D01*
X135737500Y-107442000D02*
X135737500Y-105892500D01*
X132810998Y-105156000D02*
X132461000Y-104806002D01*
D22*
X137312500Y-107442000D02*
X137312500Y-109220000D01*
X140970000Y-109220000D02*
X140970000Y-107505500D01*
D23*
X134978500Y-100625000D02*
X135191500Y-100838000D01*
X133760000Y-100625000D02*
X134978500Y-100625000D01*
X135191500Y-100838000D02*
X136207500Y-100838000D01*
X143239034Y-100059034D02*
X143930001Y-100750001D01*
X136986466Y-100059034D02*
X143239034Y-100059034D01*
X143930001Y-100750001D02*
X144780000Y-101600000D01*
X136207500Y-100838000D02*
X136986466Y-100059034D01*
D25*
X135128000Y-90932000D02*
X137160000Y-88900000D01*
X135128000Y-94374026D02*
X135128000Y-90932000D01*
X135445500Y-94691526D02*
X135128000Y-94374026D01*
X135445500Y-95186500D02*
X135445500Y-94691526D01*
D23*
X133760000Y-99975000D02*
X135445500Y-99975000D01*
X143178896Y-99459023D02*
X143577919Y-99060000D01*
X135445500Y-99975000D02*
X135961477Y-99459023D01*
X143577919Y-99060000D02*
X144780000Y-99060000D01*
X135961477Y-99459023D02*
X143178896Y-99459023D01*
D25*
X134127978Y-96154978D02*
X134429500Y-96456500D01*
X134127978Y-90471522D02*
X134127978Y-96154978D01*
X134620000Y-88900000D02*
X134620000Y-89979500D01*
X134620000Y-89979500D02*
X134127978Y-90471522D01*
X135014665Y-99254199D02*
X135364664Y-98904200D01*
X133760000Y-99325000D02*
X134943864Y-99325000D01*
X134943864Y-99325000D02*
X135014665Y-99254199D01*
D23*
X142440988Y-98859012D02*
X135409852Y-98859012D01*
X135409852Y-98859012D02*
X135364664Y-98904200D01*
X144780000Y-96520000D02*
X142440988Y-98859012D01*
D25*
X135959999Y-87560001D02*
X136310001Y-87209999D01*
X136310001Y-87209999D02*
X137160000Y-86360000D01*
X135959999Y-89392879D02*
X135959999Y-87560001D01*
X134627990Y-90724888D02*
X135959999Y-89392879D01*
X135382000Y-96266004D02*
X134627989Y-95511993D01*
X134627989Y-95511993D02*
X134627990Y-90724888D01*
D23*
X133760000Y-98675000D02*
X134116000Y-98675000D01*
X133760000Y-98675000D02*
X134243000Y-98675000D01*
X134243000Y-98675000D02*
X134685001Y-98232999D01*
X143930001Y-94829999D02*
X144780000Y-93980000D01*
X143529999Y-95230001D02*
X143930001Y-94829999D01*
X143529999Y-96921459D02*
X143529999Y-95230001D01*
X142319457Y-98132001D02*
X143529999Y-96921459D01*
X134685001Y-98232999D02*
X134785999Y-98132001D01*
X134785999Y-98132001D02*
X142319457Y-98132001D01*
D25*
X134937500Y-97980500D02*
X134685001Y-98232999D01*
X133619978Y-96662978D02*
X134937500Y-97980500D01*
X133619978Y-90503478D02*
X133619978Y-96662978D01*
X133413500Y-90297000D02*
X133619978Y-90503478D01*
X134620000Y-86360000D02*
X133413500Y-87566500D01*
X133413500Y-87566500D02*
X133413500Y-90297000D01*
M02*
